<?xml version="1.0" encoding="utf-8"?>
<!-- Generator: Adobe Illustrator 25.2.1, SVG Export Plug-In . SVG Version: 6.00 Build 0)  -->
<svg version="1.1" xmlns="http://www.w3.org/2000/svg" xmlns:xlink="http://www.w3.org/1999/xlink" x="0px" y="0px"
	 viewBox="0 0 210 140" enable-background="new 0 0 210 140" xml:space="preserve">
<g id="Layer_1" display="none">
	<g display="inline">
		<path fill="#0033A0" d="M75.33,23.52c-3.31-0.1-7.54-0.49-10.84-0.1c-2.7,0.32-3.55,6.7,0.24,6.69c3.31-0.01,7.42-0.09,10.09-0.01
			C77.66,30.18,78.48,23.61,75.33,23.52"/>
		<path fill="#0033A0" d="M97,23.47c-3.67-0.36-9-0.02-12.67-0.05c-2.85-0.02-4.01,6.52-0.88,6.55c4.43,0.04,9.39-0.07,13.13,0.04
			C99.3,30.08,99.53,23.72,97,23.47"/>
		<path fill="#0033A0" d="M108.56,29.96c2.77,0.02,9.28-0.16,12.04-0.27c1.64-0.06,2.41-1.05,2.29-2.93
			c-0.06-0.94-0.7-3.23-2.34-3.16c-2.77,0.11-8.96,0.43-11.71,0.13C106.11,23.42,105.59,29.93,108.56,29.96"/>
		<path fill="#0033A0" d="M131.85,29.49c2.96-0.29,7.71-0.62,10.1-0.48c3.59,0.21,3.41-5.77,0.22-5.95
			c-2.59-0.15-6.97,0.12-9.56,0.11c-1.71-0.01-3.39,1.08-3.48,2.65C129.02,27.93,130.13,29.66,131.85,29.49"/>
		<path fill="#0033A0" d="M126.66,93.18V23.62 M102.77,93.18V23.62 M78.97,93.18V23.62"/>
		<path fill="#0033A0" d="M74.89,55.49c-3.31-0.1-7.54-0.5-10.84-0.1c-2.7,0.32-3.55,6.7,0.24,6.69c3.31-0.01,7.42-0.09,10.09-0.01
			C77.22,62.15,78.04,55.58,74.89,55.49"/>
		<path fill="#0033A0" d="M74.78,62.95c-3.31-0.1-7.54-0.49-10.84-0.1c-2.7,0.32-3.55,6.69,0.24,6.69c3.31,0,7.42-0.08,10.09,0
			C77.11,69.62,77.93,63.05,74.78,62.95"/>
		<path fill="#0033A0" d="M74.74,86.54c-3.31-0.1-7.54-0.5-10.84-0.1c-2.7,0.32-3.55,6.69,0.24,6.69c3.31,0,7.42-0.09,10.09,0
			C77.08,93.2,77.9,86.64,74.74,86.54"/>
		<path fill="#0033A0" d="M74.89,78.92c-3.31-0.1-7.54-0.49-10.84-0.1c-2.7,0.32-3.55,6.69,0.24,6.69
			c3.31-0.01,7.42-0.09,10.09-0.01C77.22,85.59,78.04,79.02,74.89,78.92"/>
		<path fill="#0033A0" d="M74.3,47.87c-3.31-0.1-7.54-0.49-10.84-0.1c-2.7,0.32-3.55,6.69,0.24,6.69c3.31,0,7.42-0.09,10.09,0
			C76.64,54.54,77.46,47.97,74.3,47.87"/>
		<path fill="#0033A0" d="M96.71,48.22c-3.67-0.36-9-0.02-12.67-0.05c-2.85-0.02-4.01,6.52-0.88,6.55
			c4.43,0.04,9.39-0.07,13.13,0.04C99.01,54.84,99.23,48.48,96.71,48.22"/>
		<path fill="#0033A0" d="M96.57,79.28c-3.67-0.37-9-0.02-12.67-0.05c-2.85-0.03-4.01,6.52-0.88,6.54
			c4.43,0.04,9.38-0.07,13.13,0.04C98.86,85.89,99.09,79.53,96.57,79.28"/>
		<path fill="#0033A0" d="M97.01,40.46c-3.67-0.37-9-0.02-12.67-0.06c-2.85-0.02-4.01,6.52-0.89,6.55
			c4.43,0.04,9.39-0.07,13.13,0.04C99.3,47.07,99.53,40.71,97.01,40.46"/>
		<path fill="#0033A0" d="M97.04,71.97c-3.67-0.36-9-0.02-12.67-0.05c-2.84-0.02-4.01,6.52-0.88,6.55
			c4.43,0.04,9.39-0.07,13.13,0.04C99.34,78.58,99.56,72.22,97.04,71.97"/>
		<path fill="#0033A0" d="M109.2,70.96c2.77,0.03,9.28-0.16,12.04-0.27c1.63-0.06,2.4-1.05,2.29-2.93c-0.06-0.94-0.7-3.23-2.34-3.16
			c-2.77,0.11-8.96,0.43-11.71,0.13C106.75,64.42,106.24,70.93,109.2,70.96"/>
		<path fill="#0033A0" d="M109.2,92.55c2.77,0.02,9.28-0.16,12.04-0.27c1.63-0.06,2.4-1.05,2.29-2.93c-0.06-0.94-0.7-3.23-2.34-3.16
			c-2.77,0.11-8.96,0.43-11.71,0.13C106.75,86.01,106.24,92.53,109.2,92.55"/>
		<path fill="#0033A0" d="M109.2,85.59c2.77,0.02,9.28-0.16,12.04-0.27c1.63-0.06,2.41-1.05,2.29-2.93
			c-0.06-0.94-0.7-3.23-2.34-3.16c-2.77,0.11-8.96,0.43-11.71,0.12C106.75,79.06,106.23,85.56,109.2,85.59"/>
		<path fill="#0033A0" d="M109.19,63.9c2.77,0.02,9.28-0.16,12.04-0.27c1.63-0.06,2.41-1.05,2.29-2.93
			c-0.06-0.94-0.7-3.22-2.34-3.16c-2.77,0.11-8.96,0.43-11.71,0.13C106.74,57.36,106.23,63.87,109.19,63.9"/>
		<path fill="#0033A0" d="M108.96,56.78c2.77,0.02,9.28-0.16,12.04-0.27c1.64-0.06,2.41-1.05,2.29-2.93
			c-0.06-0.94-0.7-3.23-2.34-3.16c-2.77,0.11-8.96,0.43-11.71,0.13C106.51,50.24,106,56.75,108.96,56.78"/>
		<path fill="#0033A0" d="M108.62,36.89c2.77,0.02,9.28-0.16,12.04-0.27c1.63-0.06,2.41-1.05,2.29-2.93
			c-0.06-0.94-0.7-3.23-2.34-3.16c-2.77,0.11-8.96,0.43-11.71,0.13C106.17,30.36,105.66,36.87,108.62,36.89"/>
		<path fill="#0033A0" d="M132.12,86.2c2.96-0.29,7.71-0.63,10.1-0.48c3.59,0.21,3.41-5.77,0.22-5.96
			c-2.59-0.15-6.97,0.12-9.56,0.11c-1.71,0-3.38,1.08-3.47,2.64C129.3,84.64,130.4,86.37,132.12,86.2"/>
		<path fill="#0033A0" d="M132.03,93.49c2.96-0.29,7.71-0.63,10.1-0.48c3.6,0.21,3.41-5.77,0.22-5.96
			c-2.59-0.15-6.97,0.12-9.56,0.11c-1.71-0.01-3.38,1.08-3.47,2.64C129.21,91.92,130.32,93.65,132.03,93.49"/>
		<path fill="#0033A0" d="M131.72,79.25c2.96-0.29,7.71-0.62,10.1-0.48c3.59,0.21,3.41-5.77,0.22-5.96
			c-2.58-0.15-6.97,0.12-9.55,0.11c-1.71,0-3.39,1.08-3.47,2.64C128.89,77.68,130,79.41,131.72,79.25"/>
		<path fill="#0033A0" d="M131.11,36.81c2.77,0.02,9.28-0.16,12.05-0.27c1.63-0.06,2.4-1.05,2.29-2.93
			c-0.06-0.94-0.7-3.23-2.34-3.16c-2.77,0.11-8.96,0.43-11.71,0.13C128.66,30.27,128.14,36.78,131.11,36.81"/>
		<path fill="#0033A0" d="M131.52,43.89c2.77,0.02,9.28-0.16,12.05-0.27c1.63-0.06,2.4-1.05,2.29-2.93
			c-0.06-0.94-0.69-3.23-2.34-3.16c-2.76,0.11-8.95,0.43-11.7,0.13C129.06,37.35,128.55,43.86,131.52,43.89"/>
		<path fill="#0033A0" d="M5.32,115.78v-7.99c0-0.66,0.33-0.99,1-0.99H18.3c0.66,0,0.99,0.33,0.99,1c0,0.67-0.33,1-0.99,1H7.31v1.99
			h9c0.67,0,1,0.33,1,1c0,0.67-0.33,1-1,1h-9v1.99H18.3c0.66,0,0.99,0.33,0.99,0.99c0,0.66-0.33,1-0.99,1H6.31
			C5.65,116.77,5.32,116.44,5.32,115.78"/>
		<path fill="#0033A0" d="M21.96,106.79c0.66,0,1,0.33,1.01,1l-0.01,7.98c0,0.67-0.34,1.01-1,1.01c-0.66,0-1-0.33-1-1v-7.99
			C20.97,107.12,21.3,106.79,21.96,106.79"/>
		<path fill="#0033A0" d="M25.61,110.8h3.18c0.58,0,0.86,0.33,0.86,1c0,0.66-0.28,0.99-0.83,0.99h-3.23c-0.61,0-0.91-0.33-0.91-0.99
			C24.69,111.13,24.99,110.8,25.61,110.8"/>
		<path fill="#0033A0" d="M32.33,106.79H44.3c0.66,0,1,0.33,1,0.99c0,0.66-0.33,0.99-0.98,1h-5.01v7.01c0,0.66-0.33,1-1,1
			c-0.67,0-1-0.33-1-1v-7.01h-4.99c-0.65-0.01-0.98-0.35-0.98-1C31.33,107.12,31.67,106.79,32.33,106.79"/>
		<path fill="#0033A0" d="M46.99,115.78v-7.99c0-0.66,0.33-0.99,1-0.99h11.99c0.66,0,1,0.33,1,1c0,0.67-0.33,1-1,1H48.98v1.99h9.01
			c0.66,0,0.99,0.33,0.99,1c0,0.67-0.33,1-0.99,1h-9.01v1.99h10.99c0.66,0,1,0.33,1,0.99c0,0.66-0.33,1-1,1H47.98
			C47.32,116.77,46.99,116.44,46.99,115.78"/>
		<path fill="#0033A0" d="M66.62,106.82l8.97-0.02c0.64,0,0.96,0.33,0.96,0.99c0,0.66-0.32,0.99-0.96,0.99h-8.97
			c-1.33,0.02-1.99,0.7-1.99,2.02v1.98c0,1.34,0.67,2.01,2.01,2.01h8.97c0.65,0,0.97,0.33,0.97,1c-0.01,0.66-0.34,0.99-0.99,0.99
			h-8.97c-2.65,0-3.98-1.33-3.98-3.99v-1.98C62.64,108.15,63.96,106.82,66.62,106.82"/>
		<path fill="#0033A0" d="M78.22,115.78v-7.97c0-0.66,0.33-1,0.99-1c0.66,0,0.99,0.32,1,0.94v3.05h10l-0.02-3.03
			c0.01-0.65,0.35-0.97,1.01-0.97c0.66,0,0.99,0.33,0.98,0.98v7.98c0,0.66-0.33,1-0.99,1c-0.65,0.01-0.99-0.33-0.99-1v-2.97h-10v3
			c-0.01,0.65-0.35,0.98-1,0.98C78.55,116.77,78.22,116.44,78.22,115.78"/>
		<path fill="#0033A0" d="M93.88,115.78v-7.97c0-0.66,0.24-1,0.73-1c0.48,0,0.91,0.17,1.26,0.5l9.96,6.47l0.02-6
			c0.01-0.65,0.35-0.97,1.01-0.97c0.66,0,0.99,0.33,0.98,0.98v7.98c0,0.66-0.26,1-0.78,1c-0.52,0.01-0.94-0.14-1.24-0.44l-9.95-6.57
			v6.03c-0.01,0.65-0.35,0.98-1,0.98C94.21,116.77,93.88,116.44,93.88,115.78"/>
		<path fill="#0033A0" d="M123.46,110.8v1.98c0,2.66-1.33,3.99-3.98,3.99h-5.97c-2.66,0-3.99-1.33-3.99-3.99v-1.99
			c0.01-2.65,1.34-3.98,3.98-3.98l5.99,0.02C122.13,106.83,123.46,108.15,123.46,110.8 M111.49,110.8l0.02,1.99
			c0,1.33,0.66,1.99,1.99,1.99h5.97c1.34,0,2.01-0.67,2.01-2v-1.98c0-1.33-0.67-2-2.01-2.02h-5.97
			C112.16,108.78,111.49,109.46,111.49,110.8"/>
		<path fill="#0033A0" d="M126.1,106.79c0.66,0,0.99,0.33,1,1v7h10.02l-0.02-1.01c0-0.68,0.33-1.01,1-1.01
			c0.66,0,0.99,0.34,0.99,1.03v1.98c0,0.67-0.33,1.01-0.99,1.01h-11.99c-0.66,0-0.99-0.33-0.99-1v-7.99
			C125.12,107.12,125.45,106.79,126.1,106.79"/>
		<path fill="#0033A0" d="M154.72,110.8v1.98c0,2.66-1.33,3.99-3.98,3.99h-5.97c-2.66,0-3.99-1.33-3.99-3.99v-1.99
			c0.01-2.65,1.34-3.98,3.98-3.98l5.99,0.02C153.39,106.83,154.72,108.15,154.72,110.8 M142.74,110.8l0.02,1.99
			c0,1.33,0.66,1.99,1.99,1.99h5.97c1.34,0,2.01-0.67,2.01-2v-1.98c0-1.33-0.67-2-2.01-2.02h-5.97
			C143.41,108.78,142.74,109.46,142.74,110.8"/>
		<path fill="#0033A0" d="M160.35,106.82l8.97-0.02c0.65,0,0.98,0.33,0.97,0.99c-0.01,0.66-0.33,0.99-0.97,0.99h-8.97
			c-1.33,0.02-1.99,0.7-1.99,2.02v1.98c0,1.34,0.67,2.01,2.01,2.01h7.96v-2.01h-4.97c-0.67,0-1-0.33-1-1c0-0.67,0.34-1,1.01-1h4.94
			c1.35,0.01,2.02,0.68,2.02,2.01v2.01c-0.01,1.33-0.69,1.99-2.02,1.99h-7.96c-2.65,0-3.98-1.33-3.98-3.99v-1.98
			C156.37,108.15,157.7,106.82,160.35,106.82"/>
		<path fill="#0033A0" d="M173.01,106.79c0.66,0,1,0.33,1.01,1l-0.01,7.98c0,0.67-0.33,1.01-1,1.01c-0.66,0-1-0.33-1-1v-7.99
			C172.01,107.12,172.34,106.79,173.01,106.79"/>
		<path fill="#0033A0" d="M175.73,115.78v-7.99c0-0.66,0.33-0.99,1-0.99h11.99c0.66,0,0.99,0.33,0.99,1c0,0.67-0.33,1-0.99,1h-10.99
			v1.99h9.01c0.66,0,0.99,0.33,0.99,1c0,0.67-0.33,1-0.99,1h-9.01v1.99h10.99c0.66,0,0.99,0.33,0.99,0.99c0,0.66-0.33,1-0.99,1
			h-11.99C176.06,116.77,175.73,116.44,175.73,115.78"/>
		<path fill="#0033A0" d="M194.38,106.84l9.92-0.02c0.65,0,0.98,0.33,0.97,0.98c-0.01,0.65-0.33,0.98-0.97,0.99l-9.92-0.02
			c-0.69,0.03-1.03,0.38-1.02,1.03c0.01,0.65,0.35,0.98,1.02,0.98h7.93c2,0,3,0.99,3.01,2.98c0,1.99-0.99,2.99-3,2.99h-9.95
			c-0.66,0-1-0.33-1-0.98c0-0.65,0.34-0.98,1-1h9.93c0.65-0.01,0.98-0.35,0.98-1.01c0.01-0.67-0.33-1-1-1h-7.91c-2,0-3-0.99-3-2.97
			C191.38,107.83,192.38,106.84,194.38,106.84"/>
	</g>
</g>
<g id="Layer_2">
	<path fill="#0033A0" d="M147.57,28.89c-12.29,19.58-27.25,35.65-49.42,43.23c-3.51,1.2-7.02,2.49-11.54,2.4
		c29.09-12.84,48.95-33.71,61.14-62.53c4.34,7.76,6.93,15.7,8.04,24.11c1.48,11.27,0.09,22.17-4.99,32.51
		c-0.37,0.74-0.92,2.03-1.39,1.85c-1.48-0.56-0.37-1.66-0.09-2.49C153.01,55.59,152.46,40.07,147.57,28.89"/>
	<path fill="#0033A0" d="M53.54,51.89c-0.56-20.14,15.7-39.53,36.39-43.5c10.99-2.12,21.43-0.56,31.22,4.8
		c1.29,0.74,1.29,0.74,2.77,2.68c-15.06-6-29.38-4.71-43.13,2.4c-13.76,7.2-23,18.2-26.42,33.62H53.54z"/>
	<path fill="#0033A0" d="M144.52,54.39c0.27,21.06-17.27,40.73-38.79,43.6c-12,1.57-23.74-1.2-32.6-8.04
		c14.87,5.73,29.37,5.17,43.5-1.94c14.04-7.11,23.55-18.01,27.25-33.62H144.52z"/>
	<path fill="#0033A0" d="M62.96,73.88c23.18-8.22,36.95-26.97,50.16-46.83c3.32,5.63,4.71,11.64,5.72,18.29
		c-2.31-1.57-3.14-3.69-4.43-5.36c-1.48-1.94-2.22-2.03-3.6,0.1C103.69,50.6,95.19,59.74,84.3,66.58c-5.64,3.42-11.64,6.1-18.1,7.39
		C64.99,74.24,63.79,74.61,62.96,73.88"/>
	<path fill="#0033A0" d="M191.99,127.82h1.85c4.52,0,4.99-0.46,5.08-4.43c0-4.16-0.56-4.71-5.17-4.71h-5.17
		c-1.29,0-2.4,0.46-2.86,1.85c-1.66,4.62,0.18,7.2,5.08,7.2C191.25,127.82,191.62,127.82,191.99,127.82 M191.99,132.34
		c-2.31,0-4.71,0.18-7.02,0c-3.05-0.27-4.89-2.03-5.08-5.08c-0.19-2.68-0.19-5.26,0-7.94c0.18-2.96,1.94-4.71,4.89-4.99
		c4.99-0.55,9.97-0.46,14.97,0c0.37,0,0.83,0.09,1.2,0.28c6.1,2.59,3.42,8.04,3.69,12.38c0.28,3.23-1.66,5.17-4.99,5.45
		C197.07,132.53,194.49,132.25,191.99,132.34C191.99,132.25,191.99,132.34,191.99,132.34"/>
	<path fill="#0033A0" d="M164.74,123.01h3.42c1.57,0.09,2.86-0.18,2.86-2.22c0-1.85-1.2-2.12-2.68-2.12c-2.12,0-4.34,0.09-6.47,0
		c-1.66-0.09-2.03,0.56-2.13,2.12c0,1.66,0.46,2.49,2.22,2.22C162.9,122.92,163.82,123.01,164.74,123.01 M163.91,114.14
		c2.21,0,4.52-0.09,6.74,0c2.04,0.09,4.34,0.09,5.27,2.4c0.92,2.49,1.29,5.26-0.46,7.57c-0.65,0.83-1.02,1.11,0,1.94
		c1.57,1.39,1.38,3.51,0.92,5.17c-0.46,1.94-2.4,0.74-3.69,0.93c-0.92,0.18-2.04,0.18-1.85-1.29c0.37-3.14-1.57-3.6-4.07-3.42
		c-1.2,0.09-2.49,0.09-3.69,0c-2.4-0.28-3.69,0.37-3.33,3.05c0.28,2.31-1.57,1.57-2.77,1.57c-1.11,0-2.86,0.83-2.86-1.57
		c0-4.98,0.09-9.97,0-15.06c0-1.57,0.92-1.57,2.03-1.57C158.74,114.14,161.33,114.14,163.91,114.14"/>
	<path fill="#0033A0" d="M140.82,132.25c-2.68,0-5.36-0.09-8.04,0c-1.57,0.09-2.22-0.37-2.12-2.03c0.09-4.71,0.09-9.42,0-14.13
		c0-1.66,0.55-2.12,2.12-2.12c5.36,0.09,10.62,0.09,15.98,0c1.85,0,1.85,1.02,1.85,2.31c0,1.39-0.19,2.13-1.85,2.03
		c-3.51-0.1-6.93,0-10.44,0c-1.02,0-2.12-0.1-2.03,1.47c0.09,1.48,1.01,1.21,1.94,1.29c3.14,0,6.37,0.09,9.52,0
		c1.57-0.09,2.12,0.46,2.12,2.12c0,1.66-0.74,1.85-2.03,1.85c-3.05-0.09-6.19,0-9.24,0c-1.11,0-2.4-0.37-2.31,1.57
		c0.09,1.66,1.29,1.29,2.21,1.29c3.33,0,6.56,0.09,9.88,0c1.57,0,2.77-0.09,2.68,2.13c0,2.03-0.83,2.4-2.59,2.31
		C146,132.16,143.41,132.25,140.82,132.25"/>
	<path fill="#0033A0" d="M118.19,118.67c-3.14,0-6.28-0.09-9.33,0c-1.85,0.09-2.22-0.65-2.22-2.31c0-1.66,0.37-2.31,2.22-2.31
		c5.36,0.09,10.62,0,15.98,0.09c1.02,0,2.59-0.74,2.77,1.01c0.19,1.48,0.65,3.24-1.11,4.43c-3.32,2.22-6.46,4.62-9.7,6.93
		c-0.37,0.28-0.92,0.46-0.83,1.38h9.05c1.57,0,3.14-0.46,3.14,2.31c0,2.86-1.85,2.12-3.33,2.12c-5.08,0.09-10.25,0.09-15.33,0
		c-1.01,0-2.58,0.65-2.86-0.83c-0.27-1.57-0.65-3.32,1.3-4.62c3.6-2.41,7.11-5.08,10.62-7.57
		C118.29,119.04,118.19,118.86,118.19,118.67"/>
	<path fill="#0033A0" d="M67.94,130.22h1.85c7.3,0,8.31-1.11,7.94-8.4c0-0.37-0.09-0.83-0.09-1.2c-0.27-2.86-1.66-4.43-4.8-4.34
		c-1.94,0.09-3.88,0-5.82,0c-6.55,0-6.55,0-6.55,6.47C60.47,130.22,60.47,130.22,67.94,130.22 M57.79,122.64
		c0.37-2.4-1.29-6.19,0.65-8.04c1.76-1.66,5.45-0.46,8.31-0.46c2.86,0,5.72,0.09,8.59,0.27c2.59,0.18,4.06,1.76,4.62,4.25
		c0.19,0.92,0.37,1.85,0.37,2.68c0.46,9.24-1.3,10.99-10.44,11.08c-3.41,0-6.74-0.09-10.16,0c-1.48,0-2.03-0.46-1.94-1.94
		C57.88,128,57.79,125.51,57.79,122.64"/>
	<path fill="#0033A0" d="M42.08,130.4h4.62c3.42-0.09,4.43-1.02,4.52-4.34c0.09-2.03,0-4.07,0-6.1c-0.09-2.49-1.29-3.79-3.79-3.79
		h-9.24c-4.53,0-5.17,0.65-5.27,5.08C32.94,130.4,32.11,130.5,42.08,130.4 M41.9,132.43c-2.03,0-4.06,0.09-6.19,0
		c-3.42-0.19-5.08-1.66-5.36-5.08c-0.18-2.77-0.18-5.54,0-8.22c0.28-3.32,1.94-4.99,5.36-5.17c4.16-0.19,8.4-0.19,12.56,0
		c3.51,0.18,5.17,1.94,5.45,5.45c0.19,2.58,0.19,5.08,0,7.67c-0.27,3.6-1.94,5.26-5.72,5.45C45.96,132.53,43.93,132.53,41.9,132.43
		C41.9,132.53,41.9,132.43,41.9,132.43"/>
	<path fill="#0033A0" d="M84.48,123.2c0-2.31,0.09-4.71,0-7.02c-0.09-1.57,0.37-2.22,2.03-2.12c4.62,0.09,9.24,0,13.86,0.09
		c0.83,0,2.03-0.28,2.03,1.11c0,1.48-1.3,1.11-2.03,1.11c-3.7,0-7.39,0.19-11.09,0c-2.59-0.18-2.03,1.48-2.12,2.96
		c-0.09,1.57-0.09,2.96,2.12,2.59c0.56-0.1,1.2-0.1,1.85,0c3.6,0.64,7.39-1.3,10.72,1.02c-3.23,2.77-7.11,0.46-10.62,1.2
		c-0.55,0.09-1.2,0.09-1.85,0c-2.77-0.37-2.31,1.48-2.31,3.05c0,1.57-0.37,3.23,2.31,3.14c3.6-0.18,7.2-0.09,10.81,0
		c0.83,0,2.31-0.65,2.31,1.11c0,1.48-1.29,1.01-2.12,1.01c-4.62,0.09-9.24-0.09-13.86,0.09c-1.66,0-2.12-0.46-2.03-2.12
		C84.57,127.91,84.48,125.6,84.48,123.2"/>
	<path fill="#0033A0" d="M16.13,132.43c-2.03,0-4.06,0.09-6.19,0c-2.86-0.19-4.62-1.76-4.8-4.62c-0.18-2.96-0.18-5.91,0-8.87
		c0.18-2.96,1.94-4.8,4.89-4.9c4.07-0.19,8.22-0.19,12.28,0c2.86,0.19,4.44,2.03,4.44,4.53c0,0.73,0.09,1.47-1.02,1.57
		c-0.83,0.1-1.39-0.09-1.48-1.11c-0.09-2.5-1.76-2.86-3.79-2.86h-9.24c-2.31,0-3.6,1.2-3.6,3.6v7.02c0,2.21,1.29,3.42,3.41,3.51
		c3.51,0.09,6.93,0.09,10.44,0c1.76,0,2.95-0.83,2.86-2.77c0-1.02,0.46-1.48,1.48-1.39c1.11,0.09,1.02,0.83,1.02,1.57
		c0.09,2.68-1.02,4.43-3.79,4.62C20.84,132.53,18.44,132.34,16.13,132.43C16.13,132.34,16.13,132.43,16.13,132.43"/>
</g>
</svg>
