<?xml version="1.0" encoding="utf-8"?>
<!-- Generator: Adobe Illustrator 25.2.1, SVG Export Plug-In . SVG Version: 6.00 Build 0)  -->
<svg version="1.1" id="Layer_1" xmlns="http://www.w3.org/2000/svg" xmlns:xlink="http://www.w3.org/1999/xlink" x="0px" y="0px"
	 viewBox="0 0 210 120" enable-background="new 0 0 210 120" xml:space="preserve">
<g>
	<path fill="#0033A0" d="M75.33,13.52c-3.31-0.1-7.54-0.49-10.84-0.1c-2.7,0.32-3.55,6.7,0.24,6.69c3.31-0.01,7.42-0.09,10.09-0.01
		C77.66,20.18,78.48,13.61,75.33,13.52"/>
	<path fill="#0033A0" d="M97,13.47c-3.67-0.36-9-0.02-12.67-0.05c-2.85-0.02-4.01,6.52-0.88,6.55c4.43,0.04,9.39-0.07,13.13,0.04
		C99.3,20.08,99.53,13.72,97,13.47"/>
	<path fill="#0033A0" d="M108.56,19.96c2.77,0.02,9.28-0.16,12.04-0.27c1.64-0.06,2.41-1.05,2.29-2.93
		c-0.06-0.94-0.7-3.23-2.34-3.16c-2.77,0.11-8.96,0.43-11.71,0.13C106.11,13.42,105.59,19.93,108.56,19.96"/>
	<path fill="#0033A0" d="M131.85,19.49c2.96-0.29,7.71-0.62,10.1-0.48c3.59,0.21,3.41-5.77,0.22-5.95
		c-2.59-0.15-6.97,0.12-9.56,0.11c-1.71-0.01-3.39,1.08-3.48,2.65C129.02,17.93,130.13,19.66,131.85,19.49"/>
	<path fill="#0033A0" d="M126.66,83.18V13.62 M102.77,83.18V13.62 M78.97,83.18V13.62"/>
	<path fill="#0033A0" d="M74.89,45.49c-3.31-0.1-7.54-0.5-10.84-0.1c-2.7,0.32-3.55,6.7,0.24,6.69c3.31-0.01,7.42-0.09,10.09-0.01
		C77.22,52.15,78.04,45.58,74.89,45.49"/>
	<path fill="#0033A0" d="M74.78,52.95c-3.31-0.1-7.54-0.49-10.84-0.1c-2.7,0.32-3.55,6.69,0.24,6.69c3.31,0,7.42-0.08,10.09,0
		C77.11,59.62,77.93,53.05,74.78,52.95"/>
	<path fill="#0033A0" d="M74.74,76.54c-3.31-0.1-7.54-0.5-10.84-0.1c-2.7,0.32-3.55,6.69,0.24,6.69c3.31,0,7.42-0.09,10.09,0
		C77.08,83.2,77.9,76.64,74.74,76.54"/>
	<path fill="#0033A0" d="M74.89,68.92c-3.31-0.1-7.54-0.49-10.84-0.1c-2.7,0.32-3.55,6.69,0.24,6.69c3.31-0.01,7.42-0.09,10.09-0.01
		C77.22,75.59,78.04,69.02,74.89,68.92"/>
	<path fill="#0033A0" d="M74.3,37.87c-3.31-0.1-7.54-0.49-10.84-0.1c-2.7,0.32-3.55,6.69,0.24,6.69c3.31,0,7.42-0.09,10.09,0
		C76.64,44.54,77.46,37.97,74.3,37.87"/>
	<path fill="#0033A0" d="M96.71,38.22c-3.67-0.36-9-0.02-12.67-0.05c-2.85-0.02-4.01,6.52-0.88,6.55c4.43,0.04,9.39-0.07,13.13,0.04
		C99.01,44.84,99.23,38.48,96.71,38.22"/>
	<path fill="#0033A0" d="M96.57,69.28c-3.67-0.37-9-0.02-12.67-0.05c-2.85-0.03-4.01,6.52-0.88,6.54c4.43,0.04,9.38-0.07,13.13,0.04
		C98.86,75.89,99.09,69.53,96.57,69.28"/>
	<path fill="#0033A0" d="M97.01,30.46c-3.67-0.37-9-0.02-12.67-0.06c-2.85-0.02-4.01,6.52-0.89,6.55c4.43,0.04,9.39-0.07,13.13,0.04
		C99.3,37.07,99.53,30.71,97.01,30.46"/>
	<path fill="#0033A0" d="M97.04,61.97c-3.67-0.36-9-0.02-12.67-0.05c-2.84-0.02-4.01,6.52-0.88,6.55c4.43,0.04,9.39-0.07,13.13,0.04
		C99.34,68.58,99.56,62.22,97.04,61.97"/>
	<path fill="#0033A0" d="M109.2,60.96c2.77,0.03,9.28-0.16,12.04-0.27c1.63-0.06,2.4-1.05,2.29-2.93c-0.06-0.94-0.7-3.23-2.34-3.16
		c-2.77,0.11-8.96,0.43-11.71,0.13C106.75,54.42,106.24,60.93,109.2,60.96"/>
	<path fill="#0033A0" d="M109.2,82.55c2.77,0.02,9.28-0.16,12.04-0.27c1.63-0.06,2.4-1.05,2.29-2.93c-0.06-0.94-0.7-3.23-2.34-3.16
		c-2.77,0.11-8.96,0.43-11.71,0.13C106.75,76.01,106.24,82.53,109.2,82.55"/>
	<path fill="#0033A0" d="M109.2,75.59c2.77,0.02,9.28-0.16,12.04-0.27c1.63-0.06,2.41-1.05,2.29-2.93c-0.06-0.94-0.7-3.23-2.34-3.16
		c-2.77,0.11-8.96,0.43-11.71,0.12C106.75,69.06,106.23,75.56,109.2,75.59"/>
	<path fill="#0033A0" d="M109.19,53.9c2.77,0.02,9.28-0.16,12.04-0.27c1.63-0.06,2.41-1.05,2.29-2.93c-0.06-0.94-0.7-3.22-2.34-3.16
		c-2.77,0.11-8.96,0.43-11.71,0.13C106.74,47.36,106.23,53.87,109.19,53.9"/>
	<path fill="#0033A0" d="M108.96,46.78c2.77,0.02,9.28-0.16,12.04-0.27c1.64-0.06,2.41-1.05,2.29-2.93
		c-0.06-0.94-0.7-3.23-2.34-3.16c-2.77,0.11-8.96,0.43-11.71,0.13C106.51,40.24,106,46.75,108.96,46.78"/>
	<path fill="#0033A0" d="M108.62,26.89c2.77,0.02,9.28-0.16,12.04-0.27c1.63-0.06,2.41-1.05,2.29-2.93
		c-0.06-0.94-0.7-3.23-2.34-3.16c-2.77,0.11-8.96,0.43-11.71,0.13C106.17,20.36,105.66,26.87,108.62,26.89"/>
	<path fill="#0033A0" d="M132.12,76.2c2.96-0.29,7.71-0.63,10.1-0.48c3.59,0.21,3.41-5.77,0.22-5.96c-2.59-0.15-6.97,0.12-9.56,0.11
		c-1.71,0-3.38,1.08-3.47,2.64C129.3,74.64,130.4,76.37,132.12,76.2"/>
	<path fill="#0033A0" d="M132.03,83.49c2.96-0.29,7.71-0.63,10.1-0.48c3.6,0.21,3.41-5.77,0.22-5.96c-2.59-0.15-6.97,0.12-9.56,0.11
		c-1.71-0.01-3.38,1.08-3.47,2.64C129.21,81.92,130.32,83.65,132.03,83.49"/>
	<path fill="#0033A0" d="M131.72,69.25c2.96-0.29,7.71-0.62,10.1-0.48c3.59,0.21,3.41-5.77,0.22-5.96
		c-2.58-0.15-6.97,0.12-9.55,0.11c-1.71,0-3.39,1.08-3.47,2.64C128.89,67.68,130,69.41,131.72,69.25"/>
	<path fill="#0033A0" d="M131.11,26.81c2.77,0.02,9.28-0.16,12.05-0.27c1.63-0.06,2.4-1.05,2.29-2.93c-0.06-0.94-0.7-3.23-2.34-3.16
		c-2.77,0.11-8.96,0.43-11.71,0.13C128.66,20.27,128.14,26.78,131.11,26.81"/>
	<path fill="#0033A0" d="M131.52,33.89c2.77,0.02,9.28-0.16,12.05-0.27c1.63-0.06,2.4-1.05,2.29-2.93
		c-0.06-0.94-0.69-3.23-2.34-3.16c-2.76,0.11-8.95,0.43-11.7,0.13C129.06,27.35,128.55,33.86,131.52,33.89"/>
	<path fill="#0033A0" d="M5.32,105.78v-7.99c0-0.66,0.33-0.99,1-0.99H18.3c0.66,0,0.99,0.33,0.99,1c0,0.67-0.33,1-0.99,1H7.31v1.99
		h9c0.67,0,1,0.33,1,1c0,0.67-0.33,1-1,1h-9v1.99H18.3c0.66,0,0.99,0.33,0.99,0.99c0,0.66-0.33,1-0.99,1H6.31
		C5.65,106.77,5.32,106.44,5.32,105.78"/>
	<path fill="#0033A0" d="M21.96,96.79c0.66,0,1,0.33,1.01,1l-0.01,7.98c0,0.67-0.34,1.01-1,1.01c-0.66,0-1-0.33-1-1v-7.99
		C20.97,97.12,21.3,96.79,21.96,96.79"/>
	<path fill="#0033A0" d="M25.61,100.8h3.18c0.58,0,0.86,0.33,0.86,1c0,0.66-0.28,0.99-0.83,0.99h-3.23c-0.61,0-0.91-0.33-0.91-0.99
		C24.69,101.13,24.99,100.8,25.61,100.8"/>
	<path fill="#0033A0" d="M32.33,96.79H44.3c0.66,0,1,0.33,1,0.99c0,0.66-0.33,0.99-0.98,1h-5.01v7.01c0,0.66-0.33,1-1,1
		c-0.67,0-1-0.33-1-1v-7.01h-4.99c-0.65-0.01-0.98-0.35-0.98-1C31.33,97.12,31.67,96.79,32.33,96.79"/>
	<path fill="#0033A0" d="M46.99,105.78v-7.99c0-0.66,0.33-0.99,1-0.99h11.99c0.66,0,1,0.33,1,1c0,0.67-0.33,1-1,1H48.98v1.99h9.01
		c0.66,0,0.99,0.33,0.99,1c0,0.67-0.33,1-0.99,1h-9.01v1.99h10.99c0.66,0,1,0.33,1,0.99c0,0.66-0.33,1-1,1H47.98
		C47.32,106.77,46.99,106.44,46.99,105.78"/>
	<path fill="#0033A0" d="M66.62,96.82l8.97-0.02c0.64,0,0.96,0.33,0.96,0.99c0,0.66-0.32,0.99-0.96,0.99h-8.97
		c-1.33,0.02-1.99,0.7-1.99,2.02v1.98c0,1.34,0.67,2.01,2.01,2.01h8.97c0.65,0,0.97,0.33,0.97,1c-0.01,0.66-0.34,0.99-0.99,0.99
		h-8.97c-2.65,0-3.98-1.33-3.98-3.99v-1.98C62.64,98.15,63.96,96.82,66.62,96.82"/>
	<path fill="#0033A0" d="M78.22,105.78V97.8c0-0.66,0.33-1,0.99-1c0.66,0,0.99,0.32,1,0.94v3.05h10l-0.02-3.03
		c0.01-0.65,0.35-0.97,1.01-0.97c0.66,0,0.99,0.33,0.98,0.98v7.98c0,0.66-0.33,1-0.99,1c-0.65,0.01-0.99-0.33-0.99-1v-2.97h-10v3
		c-0.01,0.65-0.35,0.98-1,0.98C78.55,106.77,78.22,106.44,78.22,105.78"/>
	<path fill="#0033A0" d="M93.88,105.78V97.8c0-0.66,0.24-1,0.73-1c0.48,0,0.91,0.17,1.26,0.5l9.96,6.47l0.02-6
		c0.01-0.65,0.35-0.97,1.01-0.97c0.66,0,0.99,0.33,0.98,0.98v7.98c0,0.66-0.26,1-0.78,1c-0.52,0.01-0.94-0.14-1.24-0.44l-9.95-6.57
		v6.03c-0.01,0.65-0.35,0.98-1,0.98C94.21,106.77,93.88,106.44,93.88,105.78"/>
	<path fill="#0033A0" d="M123.46,100.8v1.98c0,2.66-1.33,3.99-3.98,3.99h-5.97c-2.66,0-3.99-1.33-3.99-3.99v-1.99
		c0.01-2.65,1.34-3.98,3.98-3.98l5.99,0.02C122.13,96.83,123.46,98.15,123.46,100.8 M111.49,100.8l0.02,1.99
		c0,1.33,0.66,1.99,1.99,1.99h5.97c1.34,0,2.01-0.67,2.01-2v-1.98c0-1.33-0.67-2-2.01-2.02h-5.97
		C112.16,98.78,111.49,99.46,111.49,100.8"/>
	<path fill="#0033A0" d="M126.1,96.79c0.66,0,0.99,0.33,1,1v7h10.02l-0.02-1.01c0-0.68,0.33-1.01,1-1.01c0.66,0,0.99,0.34,0.99,1.03
		v1.98c0,0.67-0.33,1.01-0.99,1.01h-11.99c-0.66,0-0.99-0.33-0.99-1v-7.99C125.12,97.12,125.45,96.79,126.1,96.79"/>
	<path fill="#0033A0" d="M154.72,100.8v1.98c0,2.66-1.33,3.99-3.98,3.99h-5.97c-2.66,0-3.99-1.33-3.99-3.99v-1.99
		c0.01-2.65,1.34-3.98,3.98-3.98l5.99,0.02C153.39,96.83,154.72,98.15,154.72,100.8 M142.74,100.8l0.02,1.99
		c0,1.33,0.66,1.99,1.99,1.99h5.97c1.34,0,2.01-0.67,2.01-2v-1.98c0-1.33-0.67-2-2.01-2.02h-5.97
		C143.41,98.78,142.74,99.46,142.74,100.8"/>
	<path fill="#0033A0" d="M160.35,96.82l8.97-0.02c0.65,0,0.98,0.33,0.97,0.99c-0.01,0.66-0.33,0.99-0.97,0.99h-8.97
		c-1.33,0.02-1.99,0.7-1.99,2.02v1.98c0,1.34,0.67,2.01,2.01,2.01h7.96v-2.01h-4.97c-0.67,0-1-0.33-1-1c0-0.67,0.34-1,1.01-1h4.94
		c1.35,0.01,2.02,0.68,2.02,2.01v2.01c-0.01,1.33-0.69,1.99-2.02,1.99h-7.96c-2.65,0-3.98-1.33-3.98-3.99v-1.98
		C156.37,98.15,157.7,96.82,160.35,96.82"/>
	<path fill="#0033A0" d="M173.01,96.79c0.66,0,1,0.33,1.01,1l-0.01,7.98c0,0.67-0.33,1.01-1,1.01c-0.66,0-1-0.33-1-1v-7.99
		C172.01,97.12,172.34,96.79,173.01,96.79"/>
	<path fill="#0033A0" d="M175.73,105.78v-7.99c0-0.66,0.33-0.99,1-0.99h11.99c0.66,0,0.99,0.33,0.99,1c0,0.67-0.33,1-0.99,1h-10.99
		v1.99h9.01c0.66,0,0.99,0.33,0.99,1c0,0.67-0.33,1-0.99,1h-9.01v1.99h10.99c0.66,0,0.99,0.33,0.99,0.99c0,0.66-0.33,1-0.99,1
		h-11.99C176.06,106.77,175.73,106.44,175.73,105.78"/>
	<path fill="#0033A0" d="M194.38,96.84l9.92-0.02c0.65,0,0.98,0.33,0.97,0.98c-0.01,0.65-0.33,0.98-0.97,0.99l-9.92-0.02
		c-0.69,0.03-1.03,0.38-1.02,1.03c0.01,0.65,0.35,0.98,1.02,0.98h7.93c2,0,3,0.99,3.01,2.98c0,1.99-0.99,2.99-3,2.99h-9.95
		c-0.66,0-1-0.33-1-0.98c0-0.65,0.34-0.98,1-1h9.93c0.65-0.01,0.98-0.35,0.98-1.01c0.01-0.67-0.33-1-1-1h-7.91c-2,0-3-0.99-3-2.97
		C191.38,97.83,192.38,96.84,194.38,96.84"/>
</g>
</svg>
