<?xml version="1.0" encoding="utf-8"?>
<!-- Generator: Adobe Illustrator 25.2.1, SVG Export Plug-In . SVG Version: 6.00 Build 0)  -->
<svg version="1.1" xmlns="http://www.w3.org/2000/svg" xmlns:xlink="http://www.w3.org/1999/xlink" x="0px" y="0px"
	 viewBox="0 0 210 160" enable-background="new 0 0 210 160" xml:space="preserve">
<g id="Layer_1" display="none">
	<g display="inline">
		<path fill="#0033A0" d="M75.33,33.52c-3.31-0.1-7.54-0.49-10.84-0.1c-2.7,0.32-3.55,6.7,0.24,6.69c3.31-0.01,7.42-0.09,10.09-0.01
			C77.66,40.18,78.48,33.61,75.33,33.52"/>
		<path fill="#0033A0" d="M97,33.47c-3.67-0.36-9-0.02-12.67-0.05c-2.85-0.02-4.01,6.52-0.88,6.55c4.43,0.04,9.39-0.07,13.13,0.04
			C99.3,40.08,99.53,33.72,97,33.47"/>
		<path fill="#0033A0" d="M108.56,39.96c2.77,0.02,9.28-0.16,12.04-0.27c1.64-0.06,2.41-1.05,2.29-2.93
			c-0.06-0.94-0.7-3.23-2.34-3.16c-2.77,0.11-8.96,0.43-11.71,0.13C106.11,33.42,105.59,39.93,108.56,39.96"/>
		<path fill="#0033A0" d="M131.85,39.49c2.96-0.29,7.71-0.62,10.1-0.48c3.59,0.21,3.41-5.77,0.22-5.95
			c-2.59-0.15-6.97,0.12-9.56,0.11c-1.71-0.01-3.39,1.08-3.48,2.65C129.02,37.93,130.13,39.66,131.85,39.49"/>
		<path fill="#0033A0" d="M126.66,103.18V33.62 M102.77,103.18V33.62 M78.97,103.18V33.62"/>
		<path fill="#0033A0" d="M74.89,65.49c-3.31-0.1-7.54-0.5-10.84-0.1c-2.7,0.32-3.55,6.7,0.24,6.69c3.31-0.01,7.42-0.09,10.09-0.01
			C77.22,72.15,78.04,65.58,74.89,65.49"/>
		<path fill="#0033A0" d="M74.78,72.95c-3.31-0.1-7.54-0.49-10.84-0.1c-2.7,0.32-3.55,6.69,0.24,6.69c3.31,0,7.42-0.08,10.09,0
			C77.11,79.62,77.93,73.05,74.78,72.95"/>
		<path fill="#0033A0" d="M74.74,96.54c-3.31-0.1-7.54-0.5-10.84-0.1c-2.7,0.32-3.55,6.69,0.24,6.69c3.31,0,7.42-0.09,10.09,0
			C77.08,103.2,77.9,96.64,74.74,96.54"/>
		<path fill="#0033A0" d="M74.89,88.92c-3.31-0.1-7.54-0.49-10.84-0.1c-2.7,0.32-3.55,6.69,0.24,6.69
			c3.31-0.01,7.42-0.09,10.09-0.01C77.22,95.59,78.04,89.02,74.89,88.92"/>
		<path fill="#0033A0" d="M74.3,57.87c-3.31-0.1-7.54-0.49-10.84-0.1c-2.7,0.32-3.55,6.69,0.24,6.69c3.31,0,7.42-0.09,10.09,0
			C76.64,64.54,77.46,57.97,74.3,57.87"/>
		<path fill="#0033A0" d="M96.71,58.22c-3.67-0.36-9-0.02-12.67-0.05c-2.85-0.02-4.01,6.52-0.88,6.55
			c4.43,0.04,9.39-0.07,13.13,0.04C99.01,64.84,99.23,58.48,96.71,58.22"/>
		<path fill="#0033A0" d="M96.57,89.28c-3.67-0.37-9-0.02-12.67-0.05c-2.85-0.03-4.01,6.52-0.88,6.54
			c4.43,0.04,9.38-0.07,13.13,0.04C98.86,95.89,99.09,89.53,96.57,89.28"/>
		<path fill="#0033A0" d="M97.01,50.46c-3.67-0.37-9-0.02-12.67-0.06c-2.85-0.02-4.01,6.52-0.89,6.55
			c4.43,0.04,9.39-0.07,13.13,0.04C99.3,57.07,99.53,50.71,97.01,50.46"/>
		<path fill="#0033A0" d="M97.04,81.97c-3.67-0.36-9-0.02-12.67-0.05c-2.84-0.02-4.01,6.52-0.88,6.55
			c4.43,0.04,9.39-0.07,13.13,0.04C99.34,88.58,99.56,82.22,97.04,81.97"/>
		<path fill="#0033A0" d="M109.2,80.96c2.77,0.03,9.28-0.16,12.04-0.27c1.63-0.06,2.4-1.05,2.29-2.93c-0.06-0.94-0.7-3.23-2.34-3.16
			c-2.77,0.11-8.96,0.43-11.71,0.13C106.75,74.42,106.24,80.93,109.2,80.96"/>
		<path fill="#0033A0" d="M109.2,102.55c2.77,0.02,9.28-0.16,12.04-0.27c1.63-0.06,2.4-1.05,2.29-2.93
			c-0.06-0.94-0.7-3.23-2.34-3.16c-2.77,0.11-8.96,0.43-11.71,0.13C106.75,96.01,106.24,102.53,109.2,102.55"/>
		<path fill="#0033A0" d="M109.2,95.59c2.77,0.02,9.28-0.16,12.04-0.27c1.63-0.06,2.41-1.05,2.29-2.93
			c-0.06-0.94-0.7-3.23-2.34-3.16c-2.77,0.11-8.96,0.43-11.71,0.12C106.75,89.06,106.23,95.56,109.2,95.59"/>
		<path fill="#0033A0" d="M109.19,73.9c2.77,0.02,9.28-0.16,12.04-0.27c1.63-0.06,2.41-1.05,2.29-2.93
			c-0.06-0.94-0.7-3.22-2.34-3.16c-2.77,0.11-8.96,0.43-11.71,0.13C106.74,67.36,106.23,73.87,109.19,73.9"/>
		<path fill="#0033A0" d="M108.96,66.78c2.77,0.02,9.28-0.16,12.04-0.27c1.64-0.06,2.41-1.05,2.29-2.93
			c-0.06-0.94-0.7-3.23-2.34-3.16c-2.77,0.11-8.96,0.43-11.71,0.13C106.51,60.24,106,66.75,108.96,66.78"/>
		<path fill="#0033A0" d="M108.62,46.89c2.77,0.02,9.28-0.16,12.04-0.27c1.63-0.06,2.41-1.05,2.29-2.93
			c-0.06-0.94-0.7-3.23-2.34-3.16c-2.77,0.11-8.96,0.43-11.71,0.13C106.17,40.36,105.66,46.87,108.62,46.89"/>
		<path fill="#0033A0" d="M132.12,96.2c2.96-0.29,7.71-0.63,10.1-0.48c3.59,0.21,3.41-5.77,0.22-5.96
			c-2.59-0.15-6.97,0.12-9.56,0.11c-1.71,0-3.38,1.08-3.47,2.64C129.3,94.64,130.4,96.37,132.12,96.2"/>
		<path fill="#0033A0" d="M132.03,103.49c2.96-0.29,7.71-0.63,10.1-0.48c3.6,0.21,3.41-5.77,0.22-5.96
			c-2.59-0.15-6.97,0.12-9.56,0.11c-1.71-0.01-3.38,1.08-3.47,2.64C129.21,101.92,130.32,103.65,132.03,103.49"/>
		<path fill="#0033A0" d="M131.72,89.25c2.96-0.29,7.71-0.62,10.1-0.48c3.59,0.21,3.41-5.77,0.22-5.96
			c-2.58-0.15-6.97,0.12-9.55,0.11c-1.71,0-3.39,1.08-3.47,2.64C128.89,87.68,130,89.41,131.72,89.25"/>
		<path fill="#0033A0" d="M131.11,46.81c2.77,0.02,9.28-0.16,12.05-0.27c1.63-0.06,2.4-1.05,2.29-2.93
			c-0.06-0.94-0.7-3.23-2.34-3.16c-2.77,0.11-8.96,0.43-11.71,0.13C128.66,40.27,128.14,46.78,131.11,46.81"/>
		<path fill="#0033A0" d="M131.52,53.89c2.77,0.02,9.28-0.16,12.05-0.27c1.63-0.06,2.4-1.05,2.29-2.93
			c-0.06-0.94-0.69-3.23-2.34-3.16c-2.76,0.11-8.95,0.43-11.7,0.13C129.06,47.35,128.55,53.86,131.52,53.89"/>
		<path fill="#0033A0" d="M5.32,125.78v-7.99c0-0.66,0.33-0.99,1-0.99H18.3c0.66,0,0.99,0.33,0.99,1c0,0.67-0.33,1-0.99,1H7.31v1.99
			h9c0.67,0,1,0.33,1,1c0,0.67-0.33,1-1,1h-9v1.99H18.3c0.66,0,0.99,0.33,0.99,0.99c0,0.66-0.33,1-0.99,1H6.31
			C5.65,126.77,5.32,126.44,5.32,125.78"/>
		<path fill="#0033A0" d="M21.96,116.79c0.66,0,1,0.33,1.01,1l-0.01,7.98c0,0.67-0.34,1.01-1,1.01c-0.66,0-1-0.33-1-1v-7.99
			C20.97,117.12,21.3,116.79,21.96,116.79"/>
		<path fill="#0033A0" d="M25.61,120.8h3.18c0.58,0,0.86,0.33,0.86,1c0,0.66-0.28,0.99-0.83,0.99h-3.23c-0.61,0-0.91-0.33-0.91-0.99
			C24.69,121.13,24.99,120.8,25.61,120.8"/>
		<path fill="#0033A0" d="M32.33,116.79H44.3c0.66,0,1,0.33,1,0.99c0,0.66-0.33,0.99-0.98,1h-5.01v7.01c0,0.66-0.33,1-1,1
			c-0.67,0-1-0.33-1-1v-7.01h-4.99c-0.65-0.01-0.98-0.35-0.98-1C31.33,117.12,31.67,116.79,32.33,116.79"/>
		<path fill="#0033A0" d="M46.99,125.78v-7.99c0-0.66,0.33-0.99,1-0.99h11.99c0.66,0,1,0.33,1,1c0,0.67-0.33,1-1,1H48.98v1.99h9.01
			c0.66,0,0.99,0.33,0.99,1c0,0.67-0.33,1-0.99,1h-9.01v1.99h10.99c0.66,0,1,0.33,1,0.99c0,0.66-0.33,1-1,1H47.98
			C47.32,126.77,46.99,126.44,46.99,125.78"/>
		<path fill="#0033A0" d="M66.62,116.82l8.97-0.02c0.64,0,0.96,0.33,0.96,0.99c0,0.66-0.32,0.99-0.96,0.99h-8.97
			c-1.33,0.02-1.99,0.7-1.99,2.02v1.98c0,1.34,0.67,2.01,2.01,2.01h8.97c0.65,0,0.97,0.33,0.97,1c-0.01,0.66-0.34,0.99-0.99,0.99
			h-8.97c-2.65,0-3.98-1.33-3.98-3.99v-1.98C62.64,118.15,63.96,116.82,66.62,116.82"/>
		<path fill="#0033A0" d="M78.22,125.78v-7.97c0-0.66,0.33-1,0.99-1c0.66,0,0.99,0.32,1,0.94v3.05h10l-0.02-3.03
			c0.01-0.65,0.35-0.97,1.01-0.97c0.66,0,0.99,0.33,0.98,0.98v7.98c0,0.66-0.33,1-0.99,1c-0.65,0.01-0.99-0.33-0.99-1v-2.97h-10v3
			c-0.01,0.65-0.35,0.98-1,0.98C78.55,126.77,78.22,126.44,78.22,125.78"/>
		<path fill="#0033A0" d="M93.88,125.78v-7.97c0-0.66,0.24-1,0.73-1c0.48,0,0.91,0.17,1.26,0.5l9.96,6.47l0.02-6
			c0.01-0.65,0.35-0.97,1.01-0.97c0.66,0,0.99,0.33,0.98,0.98v7.98c0,0.66-0.26,1-0.78,1c-0.52,0.01-0.94-0.14-1.24-0.44l-9.95-6.57
			v6.03c-0.01,0.65-0.35,0.98-1,0.98C94.21,126.77,93.88,126.44,93.88,125.78"/>
		<path fill="#0033A0" d="M123.46,120.8v1.98c0,2.66-1.33,3.99-3.98,3.99h-5.97c-2.66,0-3.99-1.33-3.99-3.99v-1.99
			c0.01-2.65,1.34-3.98,3.98-3.98l5.99,0.02C122.13,116.83,123.46,118.15,123.46,120.8 M111.49,120.8l0.02,1.99
			c0,1.33,0.66,1.99,1.99,1.99h5.97c1.34,0,2.01-0.67,2.01-2v-1.98c0-1.33-0.67-2-2.01-2.02h-5.97
			C112.16,118.78,111.49,119.46,111.49,120.8"/>
		<path fill="#0033A0" d="M126.1,116.79c0.66,0,0.99,0.33,1,1v7h10.02l-0.02-1.01c0-0.68,0.33-1.01,1-1.01
			c0.66,0,0.99,0.34,0.99,1.03v1.98c0,0.67-0.33,1.01-0.99,1.01h-11.99c-0.66,0-0.99-0.33-0.99-1v-7.99
			C125.12,117.12,125.45,116.79,126.1,116.79"/>
		<path fill="#0033A0" d="M154.72,120.8v1.98c0,2.66-1.33,3.99-3.98,3.99h-5.97c-2.66,0-3.99-1.33-3.99-3.99v-1.99
			c0.01-2.65,1.34-3.98,3.98-3.98l5.99,0.02C153.39,116.83,154.72,118.15,154.72,120.8 M142.74,120.8l0.02,1.99
			c0,1.33,0.66,1.99,1.99,1.99h5.97c1.34,0,2.01-0.67,2.01-2v-1.98c0-1.33-0.67-2-2.01-2.02h-5.97
			C143.41,118.78,142.74,119.46,142.74,120.8"/>
		<path fill="#0033A0" d="M160.35,116.82l8.97-0.02c0.65,0,0.98,0.33,0.97,0.99c-0.01,0.66-0.33,0.99-0.97,0.99h-8.97
			c-1.33,0.02-1.99,0.7-1.99,2.02v1.98c0,1.34,0.67,2.01,2.01,2.01h7.96v-2.01h-4.97c-0.67,0-1-0.33-1-1c0-0.67,0.34-1,1.01-1h4.94
			c1.35,0.01,2.02,0.68,2.02,2.01v2.01c-0.01,1.33-0.69,1.99-2.02,1.99h-7.96c-2.65,0-3.98-1.33-3.98-3.99v-1.98
			C156.37,118.15,157.7,116.82,160.35,116.82"/>
		<path fill="#0033A0" d="M173.01,116.79c0.66,0,1,0.33,1.01,1l-0.01,7.98c0,0.67-0.33,1.01-1,1.01c-0.66,0-1-0.33-1-1v-7.99
			C172.01,117.12,172.34,116.79,173.01,116.79"/>
		<path fill="#0033A0" d="M175.73,125.78v-7.99c0-0.66,0.33-0.99,1-0.99h11.99c0.66,0,0.99,0.33,0.99,1c0,0.67-0.33,1-0.99,1h-10.99
			v1.99h9.01c0.66,0,0.99,0.33,0.99,1c0,0.67-0.33,1-0.99,1h-9.01v1.99h10.99c0.66,0,0.99,0.33,0.99,0.99c0,0.66-0.33,1-0.99,1
			h-11.99C176.06,126.77,175.73,126.44,175.73,125.78"/>
		<path fill="#0033A0" d="M194.38,116.84l9.92-0.02c0.65,0,0.98,0.33,0.97,0.98c-0.01,0.65-0.33,0.98-0.97,0.99l-9.92-0.02
			c-0.69,0.03-1.03,0.38-1.02,1.03c0.01,0.65,0.35,0.98,1.02,0.98h7.93c2,0,3,0.99,3.01,2.98c0,1.99-0.99,2.99-3,2.99h-9.95
			c-0.66,0-1-0.33-1-0.98c0-0.65,0.34-0.98,1-1h9.93c0.65-0.01,0.98-0.35,0.98-1.01c0.01-0.67-0.33-1-1-1h-7.91c-2,0-3-0.99-3-2.97
			C191.38,117.83,192.38,116.84,194.38,116.84"/>
	</g>
</g>
<g id="Layer_2" display="none">
	<path display="inline" fill="#0033A0" d="M147.57,38.89c-12.29,19.58-27.25,35.65-49.42,43.23c-3.51,1.2-7.02,2.49-11.54,2.4
		c29.09-12.84,48.95-33.71,61.14-62.53c4.34,7.76,6.93,15.7,8.04,24.11c1.48,11.27,0.09,22.17-4.99,32.51
		c-0.37,0.74-0.92,2.03-1.39,1.85c-1.48-0.56-0.37-1.66-0.09-2.49C153.01,65.59,152.46,50.07,147.57,38.89"/>
	<path display="inline" fill="#0033A0" d="M53.54,61.89c-0.56-20.14,15.7-39.53,36.39-43.5c10.99-2.12,21.43-0.56,31.22,4.8
		c1.29,0.74,1.29,0.74,2.77,2.68c-15.06-6-29.38-4.71-43.13,2.4c-13.76,7.2-23,18.2-26.42,33.62H53.54z"/>
	<path display="inline" fill="#0033A0" d="M144.52,64.39c0.27,21.06-17.27,40.73-38.79,43.6c-12,1.57-23.74-1.2-32.6-8.04
		c14.87,5.73,29.37,5.17,43.5-1.94c14.04-7.11,23.55-18.01,27.25-33.62H144.52z"/>
	<path display="inline" fill="#0033A0" d="M62.96,83.88c23.18-8.22,36.95-26.97,50.16-46.83c3.32,5.63,4.71,11.64,5.72,18.29
		c-2.31-1.57-3.14-3.69-4.43-5.36c-1.48-1.94-2.22-2.03-3.6,0.1C103.69,60.6,95.19,69.74,84.3,76.58c-5.64,3.42-11.64,6.1-18.1,7.39
		C64.99,84.24,63.79,84.61,62.96,83.88"/>
	<path display="inline" fill="#0033A0" d="M191.99,137.82h1.85c4.52,0,4.99-0.46,5.08-4.43c0-4.16-0.56-4.71-5.17-4.71h-5.17
		c-1.29,0-2.4,0.46-2.86,1.85c-1.66,4.62,0.18,7.2,5.08,7.2C191.25,137.82,191.62,137.82,191.99,137.82 M191.99,142.34
		c-2.31,0-4.71,0.18-7.02,0c-3.05-0.27-4.89-2.03-5.08-5.08c-0.19-2.68-0.19-5.26,0-7.94c0.18-2.96,1.94-4.71,4.89-4.99
		c4.99-0.55,9.97-0.46,14.97,0c0.37,0,0.83,0.09,1.2,0.28c6.1,2.59,3.42,8.04,3.69,12.38c0.28,3.23-1.66,5.17-4.99,5.45
		C197.07,142.53,194.49,142.25,191.99,142.34C191.99,142.25,191.99,142.34,191.99,142.34"/>
	<path display="inline" fill="#0033A0" d="M164.74,133.01h3.42c1.57,0.09,2.86-0.18,2.86-2.22c0-1.85-1.2-2.12-2.68-2.12
		c-2.12,0-4.34,0.09-6.47,0c-1.66-0.09-2.03,0.56-2.13,2.12c0,1.66,0.46,2.49,2.22,2.22C162.9,132.92,163.82,133.01,164.74,133.01
		 M163.91,124.14c2.21,0,4.52-0.09,6.74,0c2.04,0.09,4.34,0.09,5.27,2.4c0.92,2.49,1.29,5.26-0.46,7.57c-0.65,0.83-1.02,1.11,0,1.94
		c1.57,1.39,1.38,3.51,0.92,5.17c-0.46,1.94-2.4,0.74-3.69,0.93c-0.92,0.18-2.04,0.18-1.85-1.29c0.37-3.14-1.57-3.6-4.07-3.42
		c-1.2,0.09-2.49,0.09-3.69,0c-2.4-0.28-3.69,0.37-3.33,3.05c0.28,2.31-1.57,1.57-2.77,1.57c-1.11,0-2.86,0.83-2.86-1.57
		c0-4.98,0.09-9.97,0-15.06c0-1.57,0.92-1.57,2.03-1.57C158.74,124.14,161.33,124.14,163.91,124.14"/>
	<path display="inline" fill="#0033A0" d="M140.82,142.25c-2.68,0-5.36-0.09-8.04,0c-1.57,0.09-2.22-0.37-2.12-2.03
		c0.09-4.71,0.09-9.42,0-14.13c0-1.66,0.55-2.12,2.12-2.12c5.36,0.09,10.62,0.09,15.98,0c1.85,0,1.85,1.02,1.85,2.31
		c0,1.39-0.19,2.13-1.85,2.03c-3.51-0.1-6.93,0-10.44,0c-1.02,0-2.12-0.1-2.03,1.47c0.09,1.48,1.01,1.21,1.94,1.29
		c3.14,0,6.37,0.09,9.52,0c1.57-0.09,2.12,0.46,2.12,2.12c0,1.66-0.74,1.85-2.03,1.85c-3.05-0.09-6.19,0-9.24,0
		c-1.11,0-2.4-0.37-2.31,1.57c0.09,1.66,1.29,1.29,2.21,1.29c3.33,0,6.56,0.09,9.88,0c1.57,0,2.77-0.09,2.68,2.13
		c0,2.03-0.83,2.4-2.59,2.31C146,142.16,143.41,142.25,140.82,142.25"/>
	<path display="inline" fill="#0033A0" d="M118.19,128.67c-3.14,0-6.28-0.09-9.33,0c-1.85,0.09-2.22-0.65-2.22-2.31
		c0-1.66,0.37-2.31,2.22-2.31c5.36,0.09,10.62,0,15.98,0.09c1.02,0,2.59-0.74,2.77,1.01c0.19,1.48,0.65,3.24-1.11,4.43
		c-3.32,2.22-6.46,4.62-9.7,6.93c-0.37,0.28-0.92,0.46-0.83,1.38h9.05c1.57,0,3.14-0.46,3.14,2.31c0,2.86-1.85,2.12-3.33,2.12
		c-5.08,0.09-10.25,0.09-15.33,0c-1.01,0-2.58,0.65-2.86-0.83c-0.27-1.57-0.65-3.32,1.3-4.62c3.6-2.41,7.11-5.08,10.62-7.57
		C118.29,129.04,118.19,128.86,118.19,128.67"/>
	<path display="inline" fill="#0033A0" d="M67.94,140.22h1.85c7.3,0,8.31-1.11,7.94-8.4c0-0.37-0.09-0.83-0.09-1.2
		c-0.27-2.86-1.66-4.43-4.8-4.34c-1.94,0.09-3.88,0-5.82,0c-6.55,0-6.55,0-6.55,6.47C60.47,140.22,60.47,140.22,67.94,140.22
		 M57.79,132.64c0.37-2.4-1.29-6.19,0.65-8.04c1.76-1.66,5.45-0.46,8.31-0.46c2.86,0,5.72,0.09,8.59,0.27
		c2.59,0.18,4.06,1.76,4.62,4.25c0.19,0.92,0.37,1.85,0.37,2.68c0.46,9.24-1.3,10.99-10.44,11.08c-3.41,0-6.74-0.09-10.16,0
		c-1.48,0-2.03-0.46-1.94-1.94C57.88,138,57.79,135.51,57.79,132.64"/>
	<path display="inline" fill="#0033A0" d="M42.08,140.4h4.62c3.42-0.09,4.43-1.02,4.52-4.34c0.09-2.03,0-4.07,0-6.1
		c-0.09-2.49-1.29-3.79-3.79-3.79h-9.24c-4.53,0-5.17,0.65-5.27,5.08C32.94,140.4,32.11,140.5,42.08,140.4 M41.9,142.43
		c-2.03,0-4.06,0.09-6.19,0c-3.42-0.19-5.08-1.66-5.36-5.08c-0.18-2.77-0.18-5.54,0-8.22c0.28-3.32,1.94-4.99,5.36-5.17
		c4.16-0.19,8.4-0.19,12.56,0c3.51,0.18,5.17,1.94,5.45,5.45c0.19,2.58,0.19,5.08,0,7.67c-0.27,3.6-1.94,5.26-5.72,5.45
		C45.96,142.53,43.93,142.53,41.9,142.43C41.9,142.53,41.9,142.43,41.9,142.43"/>
	<path display="inline" fill="#0033A0" d="M84.48,133.2c0-2.31,0.09-4.71,0-7.02c-0.09-1.57,0.37-2.22,2.03-2.12
		c4.62,0.09,9.24,0,13.86,0.09c0.83,0,2.03-0.28,2.03,1.11c0,1.48-1.3,1.11-2.03,1.11c-3.7,0-7.39,0.19-11.09,0
		c-2.59-0.18-2.03,1.48-2.12,2.96c-0.09,1.57-0.09,2.96,2.12,2.59c0.56-0.1,1.2-0.1,1.85,0c3.6,0.64,7.39-1.3,10.72,1.02
		c-3.23,2.77-7.11,0.46-10.62,1.2c-0.55,0.09-1.2,0.09-1.85,0c-2.77-0.37-2.31,1.48-2.31,3.05c0,1.57-0.37,3.23,2.31,3.14
		c3.6-0.18,7.2-0.09,10.81,0c0.83,0,2.31-0.65,2.31,1.11c0,1.48-1.29,1.01-2.12,1.01c-4.62,0.09-9.24-0.09-13.86,0.09
		c-1.66,0-2.12-0.46-2.03-2.12C84.57,137.91,84.48,135.6,84.48,133.2"/>
	<path display="inline" fill="#0033A0" d="M16.13,142.43c-2.03,0-4.06,0.09-6.19,0c-2.86-0.19-4.62-1.76-4.8-4.62
		c-0.18-2.96-0.18-5.91,0-8.87c0.18-2.96,1.94-4.8,4.89-4.9c4.07-0.19,8.22-0.19,12.28,0c2.86,0.19,4.44,2.03,4.44,4.53
		c0,0.73,0.09,1.47-1.02,1.57c-0.83,0.1-1.39-0.09-1.48-1.11c-0.09-2.5-1.76-2.86-3.79-2.86h-9.24c-2.31,0-3.6,1.2-3.6,3.6v7.02
		c0,2.21,1.29,3.42,3.41,3.51c3.51,0.09,6.93,0.09,10.44,0c1.76,0,2.95-0.83,2.86-2.77c0-1.02,0.46-1.48,1.48-1.39
		c1.11,0.09,1.02,0.83,1.02,1.57c0.09,2.68-1.02,4.43-3.79,4.62C20.84,142.53,18.44,142.34,16.13,142.43
		C16.13,142.34,16.13,142.43,16.13,142.43"/>
</g>
<g id="Layer_3" display="none">
	<path display="inline" fill="#0033A0" d="M15.94,122.46l3.18-0.01v0.56c0,2.25-0.42,3.71-1.26,4.37c-0.85,0.66-2.73,1-5.62,1
		c-3.3,0.01-5.32-0.51-6.08-1.56c-0.76-1.04-1.14-3.83-1.15-8.37c0-2.68,0.51-4.44,1.53-5.28c1.03-0.84,3.17-1.27,6.44-1.27
		c2.39,0,3.98,0.34,4.78,1.03c0.79,0.7,1.19,2.07,1.2,4.12l0.01,0.37l-3.18,0.01v-0.42c0-1.06-0.2-1.74-0.63-2.03
		c-0.4-0.29-1.35-0.44-2.81-0.44c-1.97,0-3.15,0.24-3.54,0.71c-0.4,0.46-0.59,1.85-0.59,4.16c0.01,3.1,0.19,4.93,0.54,5.5
		c0.35,0.57,1.5,0.85,3.44,0.85c1.57,0,2.59-0.16,3.06-0.48c0.46-0.31,0.69-1.01,0.69-2.09L15.94,122.46"/>
	<path display="inline" fill="#0033A0" d="M29.16,114.51c-2.12,0-3.37,0.27-3.73,0.8c-0.36,0.54-0.54,2.37-0.53,5.51
		c0,2.33,0.22,3.73,0.64,4.21c0.41,0.48,1.66,0.7,3.71,0.7c1.97,0,3.14-0.27,3.53-0.8c0.39-0.53,0.58-2.15,0.58-4.85
		c-0.01-2.72-0.19-4.33-0.57-4.82C32.42,114.76,31.21,114.51,29.16,114.51 M29.39,111.88c3.04,0,4.99,0.49,5.87,1.46
		c0.87,0.97,1.31,3.16,1.31,6.55c0.01,3.71-0.42,6.06-1.3,7.01c-0.87,0.98-2.99,1.45-6.36,1.45c-3.03,0-4.99-0.47-5.89-1.41
		c-0.89-0.95-1.34-3.05-1.34-6.29c0-3.88,0.43-6.29,1.29-7.28C23.86,112.38,26,111.89,29.39,111.88"/>
	<polygon display="inline" fill="#0033A0" points="43.24,112.01 43.26,125.45 51.08,125.44 51.08,128.2 40.09,128.21 40.07,112.01 	
		"/>
	<polygon display="inline" fill="#0033A0" points="57.21,111.98 57.23,125.44 65.05,125.42 65.05,128.18 54.07,128.2 54.04,112 	"/>
	<path display="inline" fill="#0033A0" d="M77.39,122.79l-2.89-8.43l-2.83,8.44L77.39,122.79z M78.12,125.06l-7.2,0l-1.03,3.12
		l-3.36,0.01l5.53-16.22l4.75,0l5.66,16.2H79.2L78.12,125.06z"/>
	<path display="inline" fill="#0033A0" d="M88.46,125.56h3.46l1.12-0.03c1.07,0,1.77-0.15,2.1-0.44c0.34-0.29,0.51-0.91,0.51-1.85
		c0-0.99-0.18-1.6-0.53-1.86c-0.35-0.25-1.22-0.37-2.62-0.37l-4.05,0.01L88.46,125.56 M88.46,118.75h3.88
		c1.25-0.01,2.05-0.14,2.4-0.41c0.35-0.27,0.52-0.89,0.52-1.86c-0.01-1.3-0.77-1.95-2.28-1.95l-4.52,0.01V118.75z M85.3,128.16
		l-0.03-16.21l8.2-0.01c1.93,0,3.24,0.3,3.93,0.89c0.7,0.6,1.05,1.72,1.06,3.39c0,1.99-0.82,3.17-2.46,3.53v0.06
		c1.91,0.29,2.87,1.57,2.87,3.86c0,1.66-0.36,2.8-1.1,3.47c-0.72,0.67-2,1-3.82,1L85.3,128.16z"/>
	<path display="inline" fill="#0033A0" d="M109.23,114.41c-2.13,0-3.38,0.28-3.73,0.81c-0.35,0.53-0.53,2.35-0.53,5.5
		c0.01,2.32,0.22,3.73,0.64,4.2c0.42,0.48,1.66,0.71,3.71,0.71c1.96,0,3.14-0.27,3.53-0.81c0.39-0.53,0.59-2.15,0.58-4.85
		c0-2.72-0.18-4.32-0.56-4.81C112.48,114.65,111.27,114.41,109.23,114.41 M109.46,111.78c3.03,0,4.98,0.49,5.86,1.45
		c0.88,0.97,1.31,3.16,1.32,6.56c0,3.71-0.43,6.05-1.31,7.01c-0.88,0.97-3,1.45-6.36,1.46c-3.03,0-4.99-0.48-5.89-1.43
		c-0.88-0.95-1.33-3.05-1.33-6.29c0-3.88,0.43-6.29,1.3-7.28C103.91,112.28,106.05,111.78,109.46,111.78"/>
	<path display="inline" fill="#0033A0" d="M123.31,120.06l4.55-0.01c1.08,0,1.81-0.19,2.16-0.57c0.35-0.38,0.53-1.13,0.53-2.27
		c0-1.15-0.16-1.89-0.46-2.23c-0.31-0.34-0.98-0.51-2.02-0.51l-4.76,0.01L123.31,120.06 M120.16,128.1l-0.03-16.19l8.23-0.01
		c2.04-0.01,3.45,0.34,4.23,1.02c0.77,0.69,1.16,1.93,1.16,3.74c0.01,1.63-0.2,2.76-0.58,3.37c-0.38,0.6-1.17,1.01-2.38,1.24v0.11
		c1.86,0.11,2.78,1.16,2.78,3.13l0.01,3.57l-3.18,0.01v-2.95c0-1.68-0.85-2.5-2.54-2.5l-4.55,0l0.01,5.46H120.16z"/>
	<path display="inline" fill="#0033A0" d="M147.02,122.7l-2.89-8.44l-2.81,8.44L147.02,122.7z M147.76,124.97l-7.2,0.01l-1.03,3.12
		h-3.35l5.52-16.21l4.76-0.01l5.66,16.2h-3.28L147.76,124.97z"/>
	<polygon display="inline" fill="#0033A0" points="161.58,114.61 161.59,128.05 158.43,128.06 158.41,114.62 153.6,114.62 
		153.59,111.85 166.55,111.85 166.56,114.6 	"/>
	<polygon display="inline" fill="#0033A0" points="172.7,111.84 172.72,128.04 169.55,128.04 169.52,111.84 	"/>
	<path display="inline" fill="#0033A0" d="M187.71,111.82l3.34-0.01l-5.34,16.22l-4.86,0l-5.35-16.19l3.29,0l3.14,9.18
		c0.3,0.87,0.74,2.34,1.32,4.41h0.08l0.32-1.11c0.39-1.37,0.72-2.48,1.01-3.3L187.71,111.82"/>
	<polygon display="inline" fill="#0033A0" points="196.66,114.4 196.67,118.58 204.49,118.57 204.49,120.84 196.67,120.84 
		196.68,125.42 205,125.42 205,128 193.51,128.02 193.48,111.81 204.91,111.8 204.91,114.38 	"/>
	<path display="inline" fill="#0033A0" d="M51.15,138.71l-1.86,0c0-1.32-0.23-2.14-0.68-2.49c-0.45-0.34-1.5-0.52-3.17-0.52
		c-1.97,0-3.24,0.18-3.81,0.5c-0.57,0.34-0.85,1.09-0.85,2.26c0,1.3,0.22,2.09,0.67,2.38c0.45,0.28,1.78,0.48,4,0.57
		c2.6,0.11,4.25,0.43,4.96,0.95c0.7,0.54,1.06,1.71,1.06,3.56c0.01,2-0.4,3.28-1.21,3.88c-0.81,0.57-2.61,0.88-5.37,0.89
		c-2.4,0-4-0.29-4.8-0.89c-0.8-0.58-1.2-1.77-1.2-3.56l-0.01-0.72h1.87v0.4c0,1.45,0.23,2.35,0.69,2.7c0.45,0.35,1.61,0.52,3.5,0.52
		c2.16,0,3.49-0.18,3.98-0.53c0.51-0.35,0.75-1.3,0.74-2.82c0-0.99-0.17-1.64-0.5-1.98c-0.35-0.33-1.05-0.52-2.13-0.59l-1.96-0.09
		l-1.86-0.09c-2.83-0.18-4.24-1.61-4.24-4.27c-0.01-1.84,0.41-3.08,1.23-3.7c0.83-0.62,2.46-0.92,4.92-0.92
		c2.49,0,4.12,0.28,4.88,0.85C50.77,135.59,51.15,136.82,51.15,138.71"/>
	<path display="inline" fill="#0033A0" d="M61.17,135.68c-2.63,0-4.18,0.29-4.62,0.86c-0.45,0.57-0.67,2.53-0.67,5.87
		c0.01,3.34,0.24,5.3,0.68,5.87c0.45,0.58,2,0.86,4.64,0.85c2.65,0,4.19-0.29,4.64-0.86c0.44-0.57,0.67-2.53,0.67-5.87l0-1.05
		l-0.02-1.53c0-1.79-0.31-2.92-0.93-3.42C64.93,135.92,63.48,135.68,61.17,135.68 M61.19,134.14c3.15,0,5.12,0.44,5.92,1.33
		c0.79,0.9,1.19,3.13,1.19,6.71c0,3.86-0.37,6.23-1.13,7.13c-0.75,0.91-2.74,1.36-5.96,1.36c-3.2,0.01-5.19-0.43-5.96-1.33
		c-0.78-0.89-1.16-3.2-1.16-6.92l-0.01-1.13l0.02-1.54c0-2.16,0.49-3.62,1.49-4.41C56.59,134.55,58.46,134.15,61.19,134.14"/>
	<polygon display="inline" fill="#0033A0" points="73.7,134.29 73.72,148.79 82.31,148.78 82.31,150.48 71.84,150.5 71.81,134.29 	
		"/>
	<path display="inline" fill="#0033A0" d="M96.67,134.26l1.88-0.01l0.02,11.35c0,2.06-0.42,3.41-1.27,4.06
		c-0.85,0.65-2.63,0.96-5.35,0.97c-2.55,0-4.28-0.3-5.21-0.92c-0.91-0.63-1.37-1.8-1.38-3.55v-0.54l-0.01-11.35h1.89l0.01,11.35
		c0,1.53,0.26,2.49,0.77,2.88c0.52,0.39,1.79,0.59,3.79,0.58c2.19-0.01,3.55-0.19,4.09-0.58c0.53-0.38,0.8-1.34,0.8-2.9
		L96.67,134.26"/>
	<polygon display="inline" fill="#0033A0" points="108.92,135.94 108.94,150.44 107.06,150.44 107.04,135.94 101.6,135.96 
		101.6,134.25 114.31,134.24 114.32,135.93 	"/>
	<polygon display="inline" fill="#0033A0" points="119.24,134.23 119.26,150.43 117.38,150.43 117.35,134.23 	"/>
	<path display="inline" fill="#0033A0" d="M129.91,135.6c-2.63,0-4.18,0.29-4.62,0.86c-0.45,0.57-0.67,2.54-0.67,5.86
		c0,3.35,0.23,5.31,0.68,5.87c0.45,0.57,1.99,0.86,4.63,0.85c2.65-0.01,4.19-0.29,4.64-0.87c0.46-0.56,0.67-2.52,0.66-5.87v-1.06
		l-0.01-1.53c-0.01-1.79-0.32-2.92-0.93-3.41C133.68,135.84,132.21,135.6,129.91,135.6 M129.93,134.05c3.15,0,5.13,0.44,5.91,1.34
		c0.79,0.89,1.19,3.12,1.19,6.7c0,3.86-0.37,6.23-1.14,7.15c-0.74,0.89-2.73,1.34-5.96,1.35c-3.21,0.01-5.19-0.44-5.96-1.33
		c-0.78-0.88-1.16-3.19-1.17-6.92v-1.14l0.02-1.53c0-2.15,0.5-3.61,1.49-4.41C125.33,134.46,127.2,134.05,129.93,134.05"/>
	<polygon display="inline" fill="#0033A0" points="154.81,134.19 154.83,150.39 151.74,150.39 144.73,139.37 143.59,137.56 
		143.03,136.66 142.47,135.76 142.42,135.76 142.43,136.36 142.45,136.98 142.45,138.19 142.47,150.4 140.58,150.4 140.56,134.21 
		143.64,134.2 149.75,143.85 151.34,146.39 152.14,147.65 152.93,148.92 152.97,148.92 152.96,148.31 152.95,147.7 152.95,146.49 
		152.93,134.19 	"/>
	<path display="inline" fill="#0033A0" d="M170.81,138.56h-1.87c-0.01-1.31-0.23-2.14-0.68-2.48c-0.45-0.35-1.5-0.53-3.16-0.53
		c-1.98,0-3.24,0.18-3.81,0.51c-0.57,0.33-0.86,1.09-0.86,2.24c0,1.3,0.23,2.1,0.68,2.39c0.45,0.27,1.79,0.48,4,0.58
		c2.6,0.1,4.25,0.42,4.96,0.95c0.71,0.52,1.07,1.71,1.07,3.55c0,1.99-0.41,3.29-1.22,3.88c-0.81,0.59-2.6,0.87-5.37,0.88
		c-2.4,0-4-0.28-4.79-0.88c-0.81-0.59-1.2-1.77-1.2-3.57l-0.01-0.72h1.87v0.39c0,1.44,0.22,2.35,0.69,2.7
		c0.46,0.35,1.62,0.52,3.51,0.52c2.16,0,3.49-0.18,3.98-0.53c0.49-0.36,0.75-1.29,0.75-2.81c-0.01-1-0.18-1.65-0.52-1.98
		c-0.34-0.33-1.05-0.53-2.12-0.59l-1.96-0.09l-1.87-0.09c-2.83-0.19-4.23-1.61-4.24-4.27c-0.01-1.84,0.41-3.07,1.23-3.69
		c0.83-0.62,2.46-0.93,4.93-0.94c2.48-0.01,4.12,0.29,4.87,0.86C170.43,135.44,170.81,136.67,170.81,138.56"/>
	<path display="inline" fill="#0033A0" d="M104.62,75.5l-0.06-9.84V50.83c0,0-32.51-18.21-35.78-19.98c-2.61-1.4-5.36,0.7-5.36,4.23
		v39.29c0,3.58,0.2,3.86,2.45,5.41c2.13,1.49,38.68,21.62,38.68,21.62V87.21l-28.5-16V49.54l16.4,9.28v9.53L104.62,75.5"/>
	<path display="inline" fill="#0033A0" d="M138.58,27.13c-3.27-1.89-4.51-1.68-7.36-0.05c-2.62,1.52-16.37,9.23-16.37,9.23
		l-16.79-9.57l7.26-4.07l10.33,5.75l11.78-7.55c0,0-16.61-9.07-18.91-10.56c-2.3-1.47-4.61-1.19-6.74,0
		c-2.14,1.2-22.78,12.73-25.4,14.08c-2.61,1.35-3.36,2.08-1.38,3.28c1.99,1.2,35.37,19.62,35.37,19.62l0.02,9.62l22.72-12.16
		l0.12,26.11l-10.47,5.98V64.08l-12.22,7.18l0.03,12.54V98.1c0,0,31.09-17.29,33.26-18.78c2.14-1.5,2.75-2.99,2.75-5.97V35.21
		C146.58,32.21,145.85,31.29,138.58,27.13"/>
</g>
<g id="Layer_4">
	<g>
		<path fill="#0033A0" d="M62.39,123.98c-2.56-0.99-3.4-2.42-3.05-5.17c0.25-1.94,1.62-3.2,3.62-3.31c2.13-0.12,3.68,0.94,4.12,2.87
			c0.28,1.23,0.24,2.45-0.31,3.62c-0.53,1.12-1.52,1.64-2.63,1.99C63.55,123.98,62.97,123.98,62.39,123.98z M65.56,119.76
			c-0.07-0.46-0.09-0.85-0.19-1.22c-0.28-1.05-1.07-1.63-2.13-1.62c-1.05,0.01-1.93,0.61-2.08,1.66c-0.12,0.84-0.09,1.74,0.1,2.56
			c0.21,0.92,1.1,1.43,2.06,1.41c0.92-0.02,1.68-0.53,1.98-1.43C65.44,120.66,65.49,120.17,65.56,119.76z"/>
		<path fill="#0033A0" d="M45.49,123.98c-1.73-0.73-2.19-1.23-2.39-2.8c0.45-0.04,0.89-0.12,1.33-0.11c0.12,0,0.28,0.21,0.35,0.36
			c0.49,1.06,1.58,1.51,2.58,0.96c0.31-0.17,0.63-0.6,0.64-0.93c0.01-0.26-0.38-0.67-0.68-0.79c-0.71-0.29-1.49-0.43-2.22-0.67
			c-0.77-0.25-1.38-0.73-1.63-1.53c-0.34-1.07,0.17-2.2,1.23-2.64c1.12-0.46,2.29-0.46,3.4,0.01c0.87,0.37,1.33,1.09,1.35,2.14
			c-0.55,0-1.06,0-1.59,0c-0.51-1.02-1.36-1.39-2.34-0.93c-0.23,0.11-0.52,0.42-0.5,0.61c0.02,0.25,0.28,0.59,0.51,0.68
			c0.79,0.3,1.62,0.49,2.43,0.76c1.03,0.34,1.7,1.01,1.76,2.16c0.06,1.21-0.54,2.1-1.68,2.52c-0.18,0.07-0.35,0.15-0.52,0.22
			C46.85,123.98,46.17,123.98,45.49,123.98z"/>
		<path fill="#0033A0" d="M181.23,92.77c-0.11,5.64-2.9,11.05-9.07,14.38c-6.92,3.74-16.98,1.82-21.73-4
			c-2.02-2.48-3.04-5.38-3.47-8.51c-0.52-3.88-0.19-7.63,1.5-11.23c1.94-4.14,5.04-6.98,9.38-8.37c5.07-1.62,10.08-1.43,14.82,1.12
			C178.15,79.12,181.23,84.74,181.23,92.77z M155.7,91.31c0.2,1.47,0.28,2.74,0.55,3.96c0.87,3.86,3.8,6.4,7.45,6.56
			c3.52,0.15,6.61-2.05,7.75-5.65c0.95-3.01,0.97-6.08,0.05-9.1c-1.08-3.56-3.96-5.75-7.44-5.77c-3.52-0.03-6.46,2.13-7.55,5.71
			C156.07,88.46,155.94,90,155.7,91.31z"/>
		<path fill="#0033A0" d="M126.96,109.05c-3.04,0.01-5.92-0.67-8.65-2c-3.3-1.61-5.76-4.06-7.11-7.47
			c-2.04-5.19-2.28-10.44-0.05-15.65c2.47-5.8,7.03-8.87,13.16-9.69c3.6-0.48,7.16-0.13,10.44,1.52c5.33,2.68,8.41,7.06,9.19,12.96
			c0.58,4.37,0.02,8.6-2.39,12.39C138.17,106.42,133.24,109,126.96,109.05z M135.21,91.56c-0.21-1.89-0.4-3.71-1.15-5.43
			c-1.33-3.05-4.05-4.86-7.24-4.83c-3.21,0.03-6,1.91-7.17,5.02c-1.29,3.39-1.3,6.85-0.09,10.25c1.19,3.33,4.17,5.34,7.53,5.25
			c3.31-0.08,6.19-2.23,7.21-5.58C134.77,94.73,134.92,93.12,135.21,91.56z"/>
		<path fill="#0033A0" d="M51.37,79.69c0.32-0.35,0.65-0.69,0.97-1.04c3.36-3.66,7.54-4.96,12.39-4.2c1,0.16,1.99,0.46,2.93,0.83
			c3.58,1.41,5.21,4.25,5.6,7.92c0.13,1.2,0.18,2.42,0.18,3.63c0.02,6.74,0.01,13.48,0.01,20.22c0,1.01,0,1.01-1,1.01
			c-2.23,0-4.47-0.02-6.7,0.01c-0.64,0.01-0.83-0.18-0.83-0.82c0.02-6.01,0.04-12.03-0.01-18.04c-0.01-1.49-0.14-3.01-0.41-4.47
			c-0.43-2.35-2.4-3.92-4.79-4.03c-4.12-0.18-7.17,2.43-7.66,6.63c-0.18,1.54-0.28,3.09-0.29,4.64c-0.04,5.02-0.01,10.04-0.01,15.06
			c0,1.03,0,1.03-1.05,1.03c-2.18,0-4.37-0.02-6.55,0.01c-0.64,0.01-0.84-0.21-0.84-0.84c0.01-10.48,0.01-20.95,0-31.43
			c0-0.62,0.19-0.86,0.83-0.85c2.04,0.03,4.08,0.03,6.12,0c0.61-0.01,0.81,0.23,0.79,0.81c-0.03,1.02-0.02,2.04,0,3.05
			c0,0.27,0.07,0.55,0.12,0.82C51.22,79.66,51.29,79.68,51.37,79.69z"/>
		<path fill="#0033A0" d="M204.74,62.3c-0.39,2.14-0.76,4.13-1.14,6.19c-0.7-0.11-1.36-0.28-2.03-0.3c-1.18-0.05-2.38-0.1-3.55,0.02
			c-1.09,0.11-1.85,0.85-2,1.94c-0.21,1.5-0.25,3.02-0.36,4.63c2.33,0,4.48,0,6.68,0c0,2.35,0,4.61,0,6.96c-2.16,0-4.31,0-6.55,0
			c0,8.84,0,17.6,0,26.42c-2.99,0-5.89,0-8.87,0c0-8.79,0-17.56,0-26.39c-1.66,0-3.23,0-4.85,0c0-2.33,0-4.6,0-6.96
			c1.59,0,3.18,0,4.87,0c0-1.23-0.03-2.36,0.01-3.49c0.04-1.04,0.14-2.08,0.27-3.11c0.4-3.22,2.33-5.18,5.29-6.22
			c2.63-0.92,5.35-0.86,8.06-0.49C201.96,61.67,203.32,62.01,204.74,62.3z"/>
		<path fill="#0033A0" d="M17.32,63.38c0.02,0.34,0.05,0.62,0.05,0.9c0,3.2,0,6.4,0,9.6c0,1.02,0.06,1.08,1.06,1.08
			c1.43,0,2.86,0.02,4.3-0.01c0.56-0.01,0.78,0.19,0.77,0.76c-0.02,1.7-0.02,3.39,0,5.09c0.01,0.59-0.2,0.82-0.81,0.81
			c-1.48-0.03-2.96,0.01-4.44-0.02c-0.67-0.01-0.9,0.25-0.89,0.9c0.02,4.24,0,8.49,0.01,12.73c0,1.28,0.06,2.57,0.11,3.85
			c0.07,2.05,1.29,3.04,3.32,2.69c0.69-0.12,1.37-0.3,2.04-0.51c0.52-0.16,0.69-0.01,0.74,0.51c0.16,1.74,0.38,3.47,0.53,5.2
			c0.02,0.26-0.16,0.72-0.36,0.79c-3.2,1.14-6.49,1.57-9.78,0.6c-3.28-0.97-4.72-2.93-4.85-6.53c-0.14-3.92-0.14-7.85-0.18-11.78
			c-0.02-2.5,0-5-0.01-7.49c0-0.89-0.08-0.96-0.95-0.96c-0.85-0.01-1.7-0.02-2.55,0c-0.51,0.01-0.68-0.2-0.67-0.69
			c0.02-1.75,0.02-3.49,0-5.24c-0.01-0.53,0.16-0.75,0.71-0.73c0.87,0.03,1.75-0.02,2.62,0.01c0.64,0.02,0.86-0.25,0.85-0.86
			c-0.02-1.75-0.03-3.49,0.01-5.24c0.01-0.31,0.19-0.74,0.43-0.89c2.48-1.52,5-2.99,7.5-4.47C16.98,63.46,17.1,63.44,17.32,63.38z"
			/>
		<path fill="#0033A0" d="M88.52,108.16c0-11.12,0-22.19,0-33.31c2.7,0,5.37,0,8.15,0c0,1.45,0,2.89,0,4.32
			c0.06,0.03,0.11,0.06,0.17,0.09c1.7-2.62,3.54-5.06,7.04-5.19c2.24-0.08,4.31,0.49,6.28,1.67c-0.91,2.56-1.81,5.08-2.73,7.67
			c-0.47-0.24-0.85-0.52-1.28-0.65c-0.99-0.29-2-0.67-3.01-0.71c-2-0.09-3.46,0.88-4.35,2.7c-0.98,2.01-1.23,4.19-1.28,6.37
			c-0.11,5.38-0.13,10.76-0.18,16.14c0,0.28,0,0.57,0,0.89C94.36,108.16,91.46,108.16,88.52,108.16z"/>
		<path fill="#0033A0" d="M60.59,68.65c0.02-0.27,0.05-0.54,0.05-0.81c0-3.44,0.04-6.89-0.02-10.33c-0.01-0.92,0.5-1.56,0.84-2.3
			c0.03-0.07,0.58-0.04,0.65,0.08c0.35,0.58,0.62,1.21,0.93,1.86c0.22,0,0.48,0,0.73,0c0.28-0.55,0.55-1.1,0.84-1.62
			c0.11-0.19,0.29-0.33,0.44-0.49c0.16,0.18,0.33,0.35,0.49,0.53c0.05,0.05,0.07,0.12,0.14,0.25c0.1-0.21,0.15-0.4,0.26-0.55
			c0.24-0.35,0.53-0.36,0.73,0.01c0.32,0.59,0.6,1.21,0.92,1.86c0.21,0,0.48,0,0.74,0c0.3-0.6,0.6-1.21,0.89-1.81
			c0.19-0.39,0.52-0.46,0.71-0.11c0.41,0.76,0.84,1.49,0.83,2.45c-0.06,3.27-0.03,6.55-0.02,9.82c0,0.27,0.04,0.54,0.06,0.82
			c0.08,0,0.16,0.01,0.24,0.01c0.03-0.25,0.08-0.51,0.08-0.76c0-4.56-0.02-9.12,0.02-13.68c0.01-0.79,0.28-1.58,0.37-2.38
			c0.1-0.83,0.16-1.67,0.17-2.51c0.02-1.84,1.21-3.24,1.74-4.88c0.28-0.86,0.39-1.78,0.6-2.66c0.04-0.15,0.19-0.28,0.28-0.41
			c0.1,0.11,0.28,0.23,0.28,0.33c-0.08,2,1,3.62,1.77,5.32c0.67,1.48,0.56,3.04,0.78,4.58c0.76,5.46,0.13,10.94,0.44,16.47
			c2.51,0,5.04,0,7.69,0c0-0.28,0-0.56,0-0.84c0-3.08-0.16-6.17,0.05-9.24c0.15-2.17,0.08-4.46,1.44-6.43c0.4-0.58,0.46-1.4,0.7-2.1
			c0.05-0.15,0.19-0.28,0.29-0.41c0.1,0.11,0.27,0.22,0.27,0.33c-0.01,1.21,0.66,2.17,1.19,3.16c0.51,0.97,0.6,1.99,0.74,3.05
			c0.48,3.55,0.15,7.11,0.3,10.66c0.66,0.16,0.67,0.16,0.67-0.54c0-3.9-0.05-7.81,0.04-11.71c0.02-1,0.44-2.01,0.75-2.99
			c0.15-0.48,0.47-0.9,0.72-1.34c0.42-0.76,0.93-1.48,0.9-2.42c0-0.13,0.2-0.26,0.31-0.39c0.09,0.12,0.26,0.24,0.26,0.36
			c-0.01,1.11,0.62,1.98,1.14,2.86c0.92,1.54,1.31,3.18,1.29,4.98c-0.04,4.68-0.01,9.36-0.01,14.04c0,0.27,0,0.54,0,0.81
			c0.08,0,0.15,0,0.23,0c0-0.58,0-1.15,0-1.79c1.52,0,2.92,0,4.42,0c0-0.6,0-1.15,0-1.76c1.09,0.19,2.06,0.36,3.04,0.53
			c0.93,0.16,1.22-0.08,1.23-1.02c0-0.73,0.01-1.45,0.02-2.18c0-0.04,0.04-0.08,0.08-0.17c0.6,0,1.21,0,1.91,0c0,1.07,0,2.1,0,3.19
			c0.66-0.07,1.07,0.16,1.4,0.66c0.17,0.25,0.61,0.32,1.04,0.53c0-6.76,0-13.4,0-20.09c1.56,0,3.05,0,4.59,0
			c0.02,0.51,0.05,0.99,0.07,1.52c0.5,0,0.93,0,1.44,0c0,1.74,0,3.43,0,5.18c0.4,0.03,0.73,0.06,1.16,0.1c0,1.8,0,3.6,0,5.47
			c0.5,0.02,0.9,0.04,1.4,0.07c0,1.73,0,3.43,0,5.17c0.47,0.02,0.82,0.04,1.3,0.07c0,1.27,0,2.54,0,3.84c0.52,0,0.93,0,1.4,0
			c-0.07-0.2-0.14-0.37-0.2-0.53c-0.18-0.48-0.4-0.94-0.53-1.43c-0.43-1.55,0.27-2.44,1.87-2.16c1.4,0.25,2.75,0.74,4.11,1.17
			c0.73,0.23,1.43,0.56,2.24,0.89c0-9.8,0-19.47,0-29.2c0.38-0.04,0.71-0.07,1.08-0.11c0.11-0.46-0.04-1.02,0.62-1.26
			c0.14-0.05,0.06-0.72,0.09-1.14c0.29-0.04,0.57-0.09,0.72-0.11c0.55-1.4,1.06-2.72,1.58-4.04c0.09-0.01,0.17-0.02,0.26-0.02
			c0.52,1.31,1.05,2.63,1.62,4.05c0.1,0.02,0.36,0.05,0.62,0.09c0.36,0.44-0.36,1.38,0.69,1.45c0.02,0.33,0.04,0.62,0.07,0.96
			c0.38,0.04,0.76,0.08,1.2,0.13c0,9.22,0,18.4,0,27.64c0.36,0,0.66,0,1.02,0c0-5.49,0-10.94,0-16.4c0.26-0.07,0.47-0.12,0.69-0.18
			c0.27-1.09,0.53-2.17,0.82-3.35c0.58,0.33,1.28,0.28,2.04-0.3c0,0.62,0.01,1,0,1.39c-0.02,0.47,0.03,0.87,0.47,1.21
			c0.23,0.17,0.23,0.64,0.36,1.07c0.12,0.03,0.34,0.09,0.58,0.16c0.02,0.4,0.04,0.79,0.07,1.22c0.54,0,1.06,0,1.64,0
			c0.02-0.41,0.05-0.81,0.07-1.24c0.23-0.05,0.44-0.1,0.66-0.15c0.25-1.1,0.5-2.18,0.77-3.37c0.58,0.1,1.31,0.61,1.96-0.35
			c0.03,0.1,0.07,0.2,0.1,0.3c0,0.41,0.02,0.81,0,1.22c-0.02,0.46,0.07,0.8,0.46,1.13c0.24,0.2,0.25,0.68,0.38,1.09
			c0.14,0.04,0.34,0.09,0.61,0.16c0,6.58,0,13.14,0,19.74c0.26,0.01,0.44,0.02,0.71,0.04c0.01-0.27,0.04-0.5,0.03-0.73
			c-0.02-0.63,0.14-0.99,0.9-0.93c0.94,0.07,1.89,0.02,2.65,0.02c0.38-0.36,0.64-0.61,0.98-0.94c0,0.02,0.04-0.11-0.01-0.21
			c-0.51-1.28-0.38-1.9,0.7-2.74c0.44-0.34,0.92-0.59,0.47-1.25c-0.05-0.08-0.02-0.24,0.02-0.35c0.16-0.46,0.33-0.91,0.53-1.44
			c0.11,0,0.31,0,0.43,0c0.19,0.51,0.36,0.97,0.53,1.42c0.03,0.09,0.09,0.22,0.05,0.28c-0.55,0.79,0.12,1.06,0.58,1.46
			c1.01,0.87,1.11,1.48,0.52,2.64c-0.04,0.08-0.03,0.19-0.03,0.2c0.31,0.27,0.58,0.51,0.86,0.75c-0.03,0.06-0.06,0.13-0.09,0.19
			c0.92,0,1.84,0,2.75,0c0.97,0,0.99,0.02,1.01,1.03c0,0.16,0.02,0.32,0.04,0.56c0.21-0.12,0.37-0.17,0.48-0.28
			c0.37-0.37,0.68-0.29,1.07,0c0.31,0.23,0.73,0.32,1.23,0.53c0,0.23,0.03,0.58-0.01,0.94c-0.02,0.15-0.16,0.29-0.25,0.43
			c-0.09-0.14-0.21-0.27-0.26-0.42c-0.05-0.15-0.02-0.33-0.03-0.45c-0.44-0.24-0.84-0.46-1.19-0.65c-0.49,0.2-0.96,0.4-1.54,0.64
			c-0.05-0.6-0.09-1.02-0.13-1.48c-0.95,0-1.84,0-2.81,0c-0.03,0.39-0.06,0.82-0.09,1.3c-0.28,0.01-0.53,0.02-0.87,0.04
			c0-0.76,0-1.47,0-2.16c-0.82-0.35-0.95-1-0.5-1.7c0.15-0.23,0.22-0.71,0.08-0.9c-0.37-0.49-0.85-0.91-1.33-1.3
			c-0.12-0.1-0.47-0.1-0.6,0c-0.48,0.39-0.94,0.82-1.34,1.29c-0.13,0.16-0.11,0.51-0.06,0.74c0.12,0.51,0.3,1,0.47,1.54
			c-0.38,0.1-0.58,0.16-0.85,0.23c0,0.71,0,1.43,0,2.2c-0.32,0-0.57,0-0.88,0c-0.04-0.43-0.07-0.85-0.11-1.28c-0.96,0-1.87,0-2.81,0
			c-0.04,0.46-0.07,0.86-0.11,1.29c-0.59,0-1.14,0-1.75,0c0-6.6,0-13.17,0-19.76c-0.26-0.07-0.46-0.13-0.74-0.2
			c0.19-1.05-0.29-1.79-1.34-1.93c-0.56-0.08-1.08,0.91-1.17,1.94c-1.09-0.03-0.49,0.89-0.78,1.41c-0.86,0-1.75,0-2.69,0
			c0-0.42,0-0.8,0-1.21c-0.26-0.08-0.48-0.14-0.56-0.17c-0.19-0.55-0.28-1.05-0.53-1.44c-0.18-0.27-0.62-0.6-0.88-0.55
			c-0.39,0.07-0.82,0.39-1.04,0.73c-0.2,0.31-0.16,0.78-0.23,1.24c-0.6-0.02-0.69,0.35-0.69,0.91c0.02,4.92,0.01,9.85,0.01,14.77
			c0,0.29,0,0.57,0,0.91c-0.71,0-1.35,0-2.07,0c0-9.22,0-18.43,0-27.68c-0.43-0.03-0.78-0.06-1.18-0.09
			c-0.02-0.31-0.05-0.59-0.08-0.93c-1-0.07-0.43-0.95-0.71-1.47c-0.25-0.03-0.5-0.06-0.73-0.08c-0.35-1.12-0.68-2.19-1.01-3.25
			c-0.07,0-0.13,0-0.2,0c-0.33,1.07-0.66,2.14-1,3.26c-0.23,0.02-0.49,0.05-0.8,0.08c-0.02,0.41-0.04,0.79-0.06,1.17
			c-0.06-0.02-0.11-0.05-0.17-0.07c-0.19,0.4-0.38,0.79-0.63,1.31c-0.16,0.02-0.49,0.05-0.91,0.08c0,9.79,0,19.57,0,29.49
			c-0.64-0.25-1.15-0.47-1.66-0.65c-1.53-0.55-3.05-1.12-4.6-1.6c-0.63-0.19-1.42-0.4-1.92,0.19c-0.51,0.6-0.11,1.3,0.15,1.92
			c0.26,0.62,0.58,1.22,0.91,1.9c-0.96,0-1.86,0-2.83,0c0-1.26,0-2.49,0-3.78c-0.44-0.03-0.81-0.05-1.29-0.09c0-1.73,0-3.44,0-5.17
			c-0.51-0.03-0.91-0.06-1.41-0.09c0-1.83,0-3.63,0-5.45c-0.43-0.05-0.76-0.08-1.15-0.12c0-1.69,0-3.35,0-5.1
			c-0.51-0.03-0.95-0.05-1.46-0.08c-0.03-0.5-0.05-0.97-0.08-1.5c-1.16,0-2.29,0-3.51,0c0,6.75,0,13.5,0,20.46
			c-1.21-0.63-2.28-1.18-3.49-1.82c0-0.81,0-1.84,0-2.93c-0.34-0.02-0.6-0.03-0.98-0.05c0,0.9,0,1.76,0,2.62
			c0,0.6-0.48,1.01-1.08,0.91c-1.02-0.16-2.04-0.34-3.13-0.52c-0.03,0.56-0.05,1.03-0.08,1.62c-1.46,0-2.9,0-4.4,0
			c0,0.68,0,1.26,0,1.89c-0.44,0-0.81,0-1.31,0c0-0.27,0-0.55,0-0.82c0-4.95,0.02-9.9-0.01-14.84c-0.01-1.52-0.33-3.01-1.11-4.36
			c-0.33-0.57-0.64-1.14-1.02-1.84c-0.76,1.41-1.63,2.6-1.87,4.16c-0.66,4.37-0.11,8.77-0.3,13.14c-0.01,0.29,0,0.57,0,0.84
			c-0.14,0.05-0.2,0.1-0.27,0.1c-1.48,0.09-1.48,0.09-1.48-1.41c0-2.35,0.06-4.71-0.02-7.06c-0.06-1.56-0.2-3.14-0.54-4.66
			c-0.21-0.96-0.85-1.83-1.4-2.96c-0.52,1.31-1.4,2.25-1.47,3.56c-0.05,0.89-0.03,1.79-0.18,2.66c-0.64,3.55-0.11,7.12-0.29,10.68
			c-0.01,0.28,0,0.57,0,0.89c-2.97,0-5.85,0-8.83,0c0-0.31,0-0.59,0-0.87c0-4.32,0.02-8.63-0.02-12.95
			c-0.01-0.84-0.27-1.68-0.37-2.53c-0.1-0.86-0.23-1.72-0.19-2.58c0.1-2.18-1.39-3.76-2-5.86c-0.19,0.32-0.29,0.46-0.37,0.62
			c-0.47,1.04-0.97,2.06-1.39,3.12c-0.21,0.52-0.32,1.11-0.36,1.67c-0.11,1.36,0.08,2.8-0.29,4.08c-0.6,2.08-0.21,4.14-0.3,6.2
			c-0.1,2.11-0.02,4.22-0.02,6.33c0,1.09,0,2.17,0,3.31c-0.49,0-0.91,0-1.42,0c0-0.29,0-0.55,0-0.8c0-3.4,0.02-6.79-0.02-10.19
			c-0.01-0.61-0.29-1.21-0.45-1.82c-0.07,0.01-0.14,0.02-0.21,0.03c-0.21,0.52-0.42,1.05-0.64,1.6c-0.63,0-1.25,0-1.88,0
			c-0.21-0.52-0.4-1.03-0.63-1.6c-0.48,0.5-0.91,0.6-1.33,0.02c-0.57,0.52-0.26,1.67-1.63,1.69c-1.39,0.02-1.12-1.09-1.78-1.83
			c-0.18,0.73-0.45,1.31-0.46,1.9c-0.04,3.49-0.02,6.99-0.02,10.48c0,0.28,0,0.57,0,0.89c-0.5,0-0.9,0-1.36,0
			c-0.28-5.7,0.31-11.42-0.38-17.1c-0.07,0-0.14,0-0.21,0c0,1.11,0,2.21,0,3.37c-0.34,0-0.61,0-0.88,0
			c-0.22-1.28-0.44-1.41-1.92-1.07c-0.02,0.32-0.04,0.66-0.07,1.08c-0.28,0.01-0.56,0.03-0.9,0.04c0-1.23,0-2.4,0-3.57
			c-0.05-0.01-0.1-0.02-0.14-0.02c-0.12,0.86-0.35,1.72-0.36,2.58c-0.05,4.56-0.04,9.12-0.05,13.68c0,0.31,0,0.62,0,1
			c-0.6,0-1.13,0-1.76,0c0-4.28,0-8.53,0-12.84c-0.49-0.03-0.89-0.05-1.34-0.08c0.04-1.94-1.52-2.75-2.74-3.76
			c-0.27-0.22-1.01-0.14-1.37,0.08c-0.66,0.39-1.29,0.91-1.76,1.51c-0.47,0.6-1.08,1.21-0.82,2.15c-0.5,0.04-0.9,0.07-1.39,0.1
			c0,0.32,0,0.6,0,0.88c0,4.03,0,8.05,0,12.08c0,0.17,0.03,0.35-0.01,0.51c-0.04,0.16-0.15,0.3-0.23,0.45
			c-0.1-0.16-0.2-0.32-0.29-0.48c-0.02-0.04,0-0.1,0-0.14c0-4.44,0-8.88,0-13.32c0-0.14,0.02-0.29,0.04-0.49
			c0.43-0.04,0.85-0.08,1.35-0.12c-0.27-1.15,0.55-1.66,1.22-2.27c0.42-0.37,0.85-0.73,1.27-1.09c0.94-0.81,1.76-0.82,2.69-0.01
			c0.81,0.71,1.65,1.38,2.39,2.16c0.22,0.24,0.14,0.77,0.21,1.24c0.38,0.02,0.78,0.05,1.26,0.07c0.01,0.31,0.04,0.58,0.04,0.86
			c0,3.78,0,7.57,0,11.35c0,0.42-0.01,0.82,0.7,0.59c0-0.26,0-0.55,0-0.83c0-4.1,0-8.2,0-12.3c0-2.56,0.88-5.87,2-7.51
			c0.17,0.41,0.36,0.77,0.47,1.15c0.05,0.18-0.03,0.56-0.09,0.57c-0.6,0.08-0.54,0.58-0.58,0.95c-0.12,1-0.17,2.01-0.25,3.06
			c0.98,0,1.84,0,2.86,0c-0.14-1.23-0.26-2.4-0.4-3.57c-0.01-0.07-0.03-0.18-0.07-0.2c-1.22-0.6-0.12-1.24,0.02-1.9
			c0.09,0.15,0.2,0.29,0.27,0.45c1.11,2.31,1.67,4.74,1.67,7.31c-0.01,4,0,8,0,12.01c0,0.28,0,0.56,0,0.83
			C60.39,68.65,60.49,68.65,60.59,68.65z"/>
		<path fill="#0033A0" d="M29.66,91.45c0-5.16,0-10.33,0-15.49c0-0.99,0-0.99,1.02-0.99c2.21,0,4.42,0.02,6.62-0.01
			c0.64-0.01,0.9,0.16,0.89,0.85c-0.02,10.47-0.02,20.94,0,31.42c0,0.61-0.15,0.86-0.81,0.85c-2.3-0.04-4.61-0.04-6.92,0
			c-0.66,0.01-0.82-0.23-0.81-0.84C29.66,101.97,29.66,96.71,29.66,91.45z"/>
		<path fill="#0033A0" d="M33.94,62.29c1.19,0,2.38,0.01,3.56-0.01c0.5-0.01,0.69,0.19,0.68,0.69c-0.01,2.15-0.01,4.31,0,6.46
			c0,0.51-0.2,0.68-0.69,0.68c-2.37-0.01-4.75-0.02-7.12,0c-0.54,0-0.72-0.2-0.72-0.73c0.02-2.13,0.02-4.26,0-6.39
			c-0.01-0.54,0.2-0.72,0.73-0.71C31.56,62.31,32.75,62.29,33.94,62.29z"/>
		<path fill="#0033A0" d="M36.75,118.97c0,0.52,0,0.99,0,1.5c-10.68,0-21.32,0-32,0c0-0.5,0-0.97,0-1.5
			C15.38,118.97,26.02,118.97,36.75,118.97z"/>
		<path fill="#0033A0" d="M204.7,118.97c0,0.52,0,0.97,0,1.49c-10.67,0-21.33,0-32.02,0c-0.02-0.23-0.04-0.44-0.04-0.66
			c-0.01-0.26,0-0.52,0-0.84C183.34,118.97,193.98,118.97,204.7,118.97z"/>
		<path fill="#0033A0" d="M117.88,115.74c-0.4,1.69-0.81,3.38-1.21,5.07c-0.2,0.82-0.42,1.64-0.59,2.47
			c-0.08,0.39-0.23,0.56-0.67,0.57c-1.25,0.01-1.25,0.03-1.57-1.19c-0.4-1.52-0.8-3.04-1.25-4.75c-0.12,0.32-0.2,0.47-0.24,0.63
			c-0.43,1.59-0.87,3.18-1.27,4.77c-0.1,0.41-0.29,0.55-0.7,0.53c-1.53-0.05-1.21,0.22-1.55-1.18c-0.5-2.07-0.98-4.15-1.47-6.22
			c-0.05-0.23-0.09-0.47-0.14-0.7c0.11-0.04,0.17-0.09,0.24-0.09c1.42-0.08,1.42-0.07,1.71,1.31c0.28,1.32,0.58,2.64,1,3.96
			c0.4-1.49,0.87-2.97,1.16-4.48c0.18-0.94,0.78-0.75,1.38-0.82c0.67-0.07,0.93,0.19,1.07,0.82c0.33,1.5,0.73,2.99,1.28,4.48
			c0.3-1.35,0.6-2.71,0.9-4.07C116.27,115.48,116.35,115.43,117.88,115.74z"/>
		<path fill="#0033A0" d="M145.03,123.8c-0.59,0-1.06,0-1.6,0c0-2.7,0-5.37,0-8.24c1.75,0.09,3.51,0.09,5.25,0.31
			c0.91,0.11,1.31,0.95,1.39,1.83c0.09,0.94-0.22,1.72-1.1,2.2c-0.25,0.14-0.53,0.22-0.71,0.3c0.81,1.15,1.63,2.29,2.46,3.47
			c-1.26,0.44-1.92,0.23-2.57-0.73c-0.4-0.6-0.81-1.21-1.24-1.79c-0.17-0.23-0.39-0.45-0.64-0.57c-0.85-0.41-1.25-0.15-1.25,0.77
			C145.03,122.12,145.03,122.92,145.03,123.8z M145.03,119.04c0.86,0,1.63,0.02,2.39-0.01c0.61-0.02,0.92-0.39,0.92-1
			c0-0.58-0.32-0.92-0.87-0.97c-0.68-0.05-1.36-0.05-2.04-0.02c-0.14,0.01-0.37,0.23-0.39,0.37
			C145.01,117.94,145.03,118.47,145.03,119.04z"/>
		<path fill="#0033A0" d="M165.84,118.81c0,0.51,0,0.91,0,1.39c-1.33,0-2.63,0-3.99,0c0,0.76,0,1.45,0,2.21c1.47,0,2.92,0,4.43,0
			c0,0.49,0,0.9,0,1.37c-2.03,0-4.05,0-6.12,0c0-2.7,0-5.38,0-8.1c1.99,0,3.95,0,5.97,0c0,0.42,0,0.84,0,1.35c-1.15,0-2.28,0-3.41,0
			c-0.93,0-0.93,0-0.93,0.96c0,0.24,0,0.48,0,0.83C163.16,118.81,164.48,118.81,165.84,118.81z"/>
		<path fill="#0033A0" d="M125.86,123.83c0.04-0.21,0.06-0.36,0.11-0.49c0.94-2.41,1.87-4.83,2.84-7.23
			c0.09-0.21,0.45-0.46,0.67-0.45c0.46,0.02,1.11-0.33,1.37,0.29c1.07,2.56,2.08,5.15,3.18,7.87c-0.6,0-1.11,0.07-1.58-0.03
			c-0.21-0.05-0.39-0.43-0.5-0.7c-0.54-1.3-0.16-1.1-1.62-1.12c-0.12,0-0.24,0.02-0.36,0c-1.19-0.19-2.07,0.06-2.27,1.45
			c-0.02,0.16-0.35,0.36-0.55,0.4C126.72,123.88,126.31,123.83,125.86,123.83z M128.76,120.51c0.77,0,1.43,0,2.17,0
			c-0.36-0.97-0.69-1.85-1.02-2.72c-0.06,0.01-0.11,0.03-0.17,0.04C129.43,118.69,129.11,119.55,128.76,120.51z"/>
		<path fill="#0033A0" d="M82.62,115.63c0,0.5,0,0.88,0,1.36c-1.28,0-2.55,0-3.88,0c0,0.68,0,1.27,0,1.95c1.07,0,2.15,0,3.29,0
			c0,0.5,0,0.92,0,1.42c-1.11,0-2.19,0-3.35,0c0,1.19,0,2.29,0,3.43c-0.58,0-1.08,0-1.63,0c0-2.69,0-5.36,0-8.16
			c0.92,0,1.83,0,2.74,0C80.71,115.63,81.63,115.63,82.62,115.63z"/>
		<path fill="#0033A0" d="M96.03,123.81c-0.62,0-1.1,0-1.67,0c0-2.23,0-4.44,0-6.76c-0.84,0-1.6,0-2.4,0c0-0.51,0-0.9,0-1.36
			c2.13,0,4.25,0,6.4,0c0,0.43,0,0.83,0,1.32c-0.76,0-1.5,0-2.33,0C96.03,119.31,96.03,121.52,96.03,123.81z"/>
	</g>
</g>
</svg>
